{"glyphs":{"0":{"ha":744,"x_min":21,"x_max":724,"o":"m 324 -3 q 106 121 211 -3 q 21 408 21 257 q 32 544 21 438 q 140 792 43 651 q 371 963 238 932 q 419 968 396 968 q 633 851 529 968 q 724 557 724 711 q 713 421 724 529 q 603 172 703 313 q 368 1 503 31 q 324 -3 346 -3 m 364 338 q 448 378 404 338 q 496 521 492 419 q 403 635 481 635 q 317 594 358 635 q 269 456 269 547 l 269 440 q 364 338 289 338 z "},"1":{"ha":481,"x_min":69,"x_max":454,"o":"m 229 6 q 188 22 200 6 q 175 90 175 38 q 201 371 175 146 q 225 581 225 558 q 221 603 225 599 q 207 608 217 608 q 175 603 196 608 q 117 593 154 597 l 111 593 q 75 614 86 593 q 69 636 69 625 q 85 672 69 657 q 244 925 167 790 q 282 956 254 947 q 439 967 315 964 q 449 963 444 967 q 454 926 454 960 q 444 789 454 910 q 418 486 431 615 l 381 68 q 347 19 376 29 q 272 8 317 10 q 249 7 260 8 q 229 6 238 6 z "},"2":{"ha":681,"x_min":22,"x_max":661,"o":"m 304 0 l 242 0 q 102 3 154 0 q 38 28 50 7 q 29 64 29 40 q 32 94 29 78 q 103 215 42 176 q 308 406 228 307 q 408 553 388 506 q 433 658 433 615 q 415 719 433 685 q 343 754 397 753 q 246 713 289 754 q 213 621 213 679 q 215 591 213 608 q 217 560 217 574 q 209 532 217 539 q 181 525 201 525 l 160 526 q 61 533 96 526 q 28 551 33 539 q 22 583 22 564 l 22 592 q 72 792 22 713 q 340 964 164 938 q 381 967 361 967 q 526 926 453 967 q 647 763 600 886 q 661 675 661 718 q 453 294 661 524 l 397 226 q 458 233 426 228 q 515 238 489 238 q 539 236 521 238 q 578 203 557 235 q 599 83 599 171 q 587 39 599 58 q 512 10 575 19 q 304 0 449 1 z "},"3":{"ha":619,"x_min":22,"x_max":593,"o":"m 272 0 q 172 25 232 0 q 73 127 113 50 q 33 271 33 204 l 33 308 q 69 347 33 343 l 135 350 q 179 342 160 350 q 200 279 199 333 q 260 217 204 217 q 351 255 304 217 q 399 358 399 293 q 354 463 399 429 q 293 479 332 479 q 186 460 250 479 q 157 454 169 454 q 129 472 136 454 q 122 518 122 490 q 122 565 122 540 q 143 590 122 590 q 179 585 157 590 q 240 576 208 576 q 295 582 258 576 q 376 667 332 588 q 389 713 389 693 q 371 753 389 738 q 306 778 343 778 q 277 776 301 778 q 242 739 253 775 q 192 683 229 692 q 136 676 163 676 l 100 676 q 22 725 22 676 q 53 832 22 783 q 110 901 83 881 q 317 972 201 972 q 485 924 408 972 q 579 767 563 875 q 582 733 582 750 q 503 496 582 635 q 593 308 593 419 q 551 155 593 232 q 421 36 508 78 q 272 0 338 0 z "},"4":{"ha":754,"x_min":69,"x_max":724,"o":"m 515 -4 q 446 19 454 -4 q 443 43 443 28 q 453 135 443 75 q 475 286 464 194 q 160 279 232 279 q 94 287 114 281 q 72 302 75 293 q 69 319 69 311 l 71 335 q 178 628 74 489 q 474 919 283 767 l 496 938 q 527 962 513 954 q 589 969 542 969 l 631 968 q 706 967 660 967 q 717 965 713 967 q 724 931 722 963 q 722 881 724 913 q 718 800 721 850 q 674 64 704 608 q 637 6 672 15 q 515 -4 601 -4 m 449 521 q 504 544 482 521 q 526 599 526 567 q 504 653 526 631 q 449 676 482 676 q 394 653 417 676 q 372 599 372 631 q 394 544 372 567 q 449 521 417 521 z "},"5":{"ha":696,"x_min":28,"x_max":668,"o":"m 319 3 l 310 3 q 99 78 171 3 q 28 304 28 154 q 42 342 28 333 q 104 351 57 351 q 231 344 194 351 q 281 310 281 332 q 268 283 281 299 q 253 243 253 263 q 267 205 253 228 q 321 172 282 182 q 340 169 331 169 q 388 190 367 169 q 464 353 464 286 q 290 476 464 476 l 267 476 q 125 487 172 476 q 66 521 78 497 q 54 582 54 544 q 51 699 51 646 q 63 872 51 803 q 117 958 75 942 q 193 969 146 969 l 236 968 q 457 964 290 964 q 604 958 558 964 q 659 928 650 951 q 668 861 668 904 l 667 807 q 654 697 667 724 q 617 679 644 679 q 583 683 603 679 q 436 701 493 701 q 392 700 426 701 q 335 681 357 699 q 313 640 313 663 q 313 626 313 639 q 327 597 314 614 q 353 581 340 581 l 396 582 q 595 512 532 582 q 658 346 658 442 q 652 263 658 329 q 558 103 646 196 q 319 3 471 11 z "},"6":{"ha":708,"x_min":22,"x_max":682,"o":"m 329 7 l 307 7 q 118 115 186 21 q 22 438 22 244 q 39 579 22 511 q 139 818 67 717 q 436 967 242 967 q 538 950 481 967 q 637 873 596 933 q 682 685 678 813 q 642 640 679 656 q 593 631 618 631 q 551 636 579 631 q 511 681 524 642 q 418 794 479 794 q 335 721 369 794 q 311 588 311 669 q 318 486 311 542 q 468 556 374 547 l 489 557 q 622 500 568 557 q 678 343 678 429 q 663 242 678 317 q 551 83 649 168 q 329 7 461 7 m 407 185 q 471 211 444 185 q 497 275 497 238 q 471 339 497 313 q 407 365 444 365 q 343 339 369 365 q 317 275 317 313 q 343 211 317 238 q 407 185 369 185 z "},"7":{"ha":919,"x_min":69,"x_max":850,"o":"m 385 0 q 311 4 342 0 q 281 26 281 8 q 292 58 281 39 q 307 90 300 72 q 440 407 385 281 q 603 760 496 533 q 174 690 278 690 q 81 721 96 690 q 69 776 69 742 q 78 847 69 807 q 126 956 86 939 q 203 967 151 967 q 276 963 235 967 q 479 956 353 956 q 850 897 850 956 l 849 892 q 588 299 721 571 q 451 1 518 151 l 385 0 z "},"8":{"ha":697,"x_min":4,"x_max":674,"o":"m 272 0 q 44 97 110 7 q 4 217 4 153 q 33 338 4 258 q 218 499 61 418 q 111 688 111 569 q 188 883 111 790 q 413 997 265 975 l 426 997 q 625 915 561 997 q 674 775 674 853 q 658 670 674 744 q 508 508 642 596 q 528 497 517 501 q 538 492 533 496 q 644 319 644 421 q 640 251 644 311 q 534 100 635 190 q 272 0 433 10 m 311 206 q 353 219 328 206 q 390 274 378 233 l 390 282 q 344 332 390 332 q 303 319 328 332 q 268 268 279 306 l 267 250 q 311 206 267 206 m 371 669 q 403 681 385 669 q 429 749 429 707 q 415 785 429 772 q 400 790 410 790 q 349 769 382 790 q 336 728 336 753 l 336 708 q 351 678 336 693 q 371 669 360 669 z "},"9":{"ha":681,"x_min":29,"x_max":651,"o":"m 293 0 q 232 1 289 0 q 96 71 175 1 q 29 256 29 131 l 31 301 q 58 322 33 315 q 117 328 83 328 q 172 318 149 326 q 197 294 196 310 q 267 167 200 171 l 275 167 q 392 239 338 167 q 432 371 432 294 q 426 433 432 400 q 236 375 311 375 q 64 501 111 375 q 38 638 38 578 l 38 649 q 143 915 46 825 q 344 997 233 997 q 420 994 354 997 q 574 876 486 992 q 651 575 651 774 l 649 488 q 613 203 640 299 q 479 46 585 107 q 293 0 400 0 m 326 601 q 385 635 369 604 q 393 665 393 650 q 383 703 393 681 q 326 729 372 725 q 267 697 283 726 q 258 665 258 681 q 269 628 258 650 q 326 601 279 606 z "},"\u0000":{"ha":0,"x_min":0,"x_max":0,"o":""},"\n":{"ha":0,"x_min":0,"x_max":0,"o":""}," ":{"ha":386,"x_min":0,"x_max":0,"o":""},"!":{"ha":369,"x_min":17,"x_max":344,"o":"m 283 326 q 233 330 268 326 q 132 338 197 333 q 73 344 92 338 q 54 378 54 350 q 63 443 54 400 q 70 486 67 463 q 78 529 74 510 q 119 832 101 678 q 121 842 121 836 q 140 924 122 881 q 218 972 158 968 q 288 917 275 972 q 297 778 297 869 q 299 650 297 696 q 301 523 299 604 q 306 368 304 442 q 302 334 306 342 q 283 326 299 326 m 196 0 q 85 31 147 0 q 17 161 24 63 q 167 282 38 282 q 275 251 214 282 q 344 131 336 219 q 257 10 335 36 q 196 0 226 0 z "},"\"":{"ha":346,"x_min":7,"x_max":340,"o":"m 82 833 l 63 833 q 49 836 56 833 q 35 856 42 839 q 22 910 29 872 q 7 1017 15 949 l 7 1021 q 14 1038 7 1031 q 32 1046 21 1044 l 88 1047 q 120 1047 106 1047 q 142 1038 135 1046 q 149 1021 149 1029 l 149 1017 q 133 910 140 949 q 117 856 125 872 q 100 836 108 839 q 82 833 92 833 m 274 833 l 254 833 q 240 836 247 833 q 227 856 233 839 q 214 910 221 872 q 199 1017 207 949 l 199 1021 q 226 1044 199 1043 q 279 1047 253 1046 q 312 1047 297 1047 q 333 1038 326 1046 q 340 1019 340 1029 l 340 1017 q 323 910 331 949 q 308 856 315 872 q 292 836 300 839 q 274 833 283 833 z "},"“":{"ha":346,"x_min":7,"x_max":340,"o":"m 82 833 l 63 833 q 49 836 56 833 q 35 856 42 839 q 22 910 29 872 q 7 1017 15 949 l 7 1021 q 14 1038 7 1031 q 32 1046 21 1044 l 88 1047 q 120 1047 106 1047 q 142 1038 135 1046 q 149 1021 149 1029 l 149 1017 q 133 910 140 949 q 117 856 125 872 q 100 836 108 839 q 82 833 92 833 m 274 833 l 254 833 q 240 836 247 833 q 227 856 233 839 q 214 910 221 872 q 199 1017 207 949 l 199 1021 q 226 1044 199 1043 q 279 1047 253 1046 q 312 1047 297 1047 q 333 1038 326 1046 q 340 1019 340 1029 l 340 1017 q 323 910 331 949 q 308 856 315 872 q 292 836 300 839 q 274 833 283 833 z "},"”":{"ha":346,"x_min":7,"x_max":340,"o":"m 82 833 l 63 833 q 49 836 56 833 q 35 856 42 839 q 22 910 29 872 q 7 1017 15 949 l 7 1021 q 14 1038 7 1031 q 32 1046 21 1044 l 88 1047 q 120 1047 106 1047 q 142 1038 135 1046 q 149 1021 149 1029 l 149 1017 q 133 910 140 949 q 117 856 125 872 q 100 836 108 839 q 82 833 92 833 m 274 833 l 254 833 q 240 836 247 833 q 227 856 233 839 q 214 910 221 872 q 199 1017 207 949 l 199 1021 q 226 1044 199 1043 q 279 1047 253 1046 q 312 1047 297 1047 q 333 1038 326 1046 q 340 1019 340 1029 l 340 1017 q 323 910 331 949 q 308 856 315 872 q 292 836 300 839 q 274 833 283 833 z "},"#":{"ha":638,"x_min":26,"x_max":611,"o":"m 499 153 q 481 154 489 153 q 398 160 419 156 q 376 178 376 164 l 374 233 l 285 235 q 286 197 285 215 l 286 189 q 279 158 286 163 q 257 153 272 153 l 235 154 q 164 157 213 157 q 122 160 135 158 q 108 167 110 161 q 106 186 106 172 q 107 239 106 214 q 28 256 32 242 l 26 267 l 28 283 q 33 366 29 344 q 51 388 38 388 l 107 390 l 108 479 q 71 478 89 479 l 57 478 q 31 484 36 478 q 26 506 26 490 l 28 528 q 31 600 31 553 q 33 641 32 629 q 40 656 35 653 q 60 658 46 658 l 68 657 l 113 657 q 129 736 115 732 l 140 738 l 157 736 q 240 731 218 735 q 261 711 261 726 l 264 656 q 353 654 313 656 l 351 707 q 358 733 351 728 q 379 738 364 738 q 401 736 389 738 q 429 735 414 735 l 474 732 q 528 724 525 732 q 532 704 532 717 q 531 650 531 700 l 578 647 q 609 637 607 643 q 611 622 611 631 l 610 607 q 604 524 608 546 q 585 503 600 503 l 529 500 q 528 411 529 450 l 575 413 q 606 406 601 413 q 611 382 611 399 q 610 361 611 372 q 608 333 608 350 l 606 290 q 598 235 606 238 q 569 232 590 232 q 524 233 542 232 q 516 165 521 176 q 499 153 511 153 m 278 400 l 364 404 l 360 490 l 274 486 l 278 400 z "},"$":{"ha":640,"x_min":21,"x_max":617,"o":"m 331 -15 l 329 -15 q 288 -13 303 -15 q 269 0 272 -11 l 267 35 l 265 35 q 213 40 238 36 q 76 93 118 56 q 22 204 33 131 q 21 235 21 217 q 51 369 21 326 q 75 383 61 383 q 115 360 92 383 q 160 303 139 338 q 204 245 182 269 q 253 218 226 221 q 282 227 267 218 q 297 251 297 236 q 236 343 297 282 l 236 346 q 121 465 157 429 q 56 625 56 540 q 70 717 56 649 q 189 856 85 786 l 189 857 l 190 857 l 186 906 q 288 929 186 918 l 404 946 q 420 949 413 947 q 433 950 428 950 q 443 949 436 950 q 450 911 450 947 l 450 892 q 596 764 557 858 q 617 668 617 715 q 597 575 617 621 q 571 550 588 554 q 544 547 561 547 q 431 563 458 547 l 429 563 q 386 600 400 579 q 356 622 372 621 q 338 618 349 622 q 293 565 293 599 q 294 542 293 564 q 389 483 294 521 q 521 417 468 453 q 594 308 574 381 q 601 253 601 279 q 552 133 601 189 q 404 50 503 78 l 401 3 q 385 -11 400 -7 q 331 -15 369 -15 z "},"%":{"ha":864,"x_min":21,"x_max":822,"o":"m 117 79 q 103 83 111 79 q 61 119 82 94 l 53 128 q 25 164 25 149 q 28 172 25 168 q 311 514 174 344 q 556 808 490 733 q 610 871 582 838 q 614 872 611 872 q 699 817 629 872 q 804 738 800 742 q 822 719 822 728 q 813 701 822 713 q 685 583 797 682 q 471 392 608 517 l 447 372 q 124 81 339 274 q 117 79 121 79 m 133 522 q 51 567 92 522 q 21 675 21 619 q 117 860 21 800 q 161 874 139 874 q 242 831 201 874 q 275 719 275 776 q 258 631 275 690 q 178 535 240 572 q 133 522 156 522 m 144 646 q 175 660 158 646 q 193 711 192 675 q 157 753 186 753 q 126 737 142 753 q 111 688 111 721 l 111 682 q 144 646 117 646 m 571 15 q 490 60 531 15 q 460 168 460 113 q 556 351 460 293 q 601 365 579 365 q 681 324 642 365 q 714 214 714 269 q 615 28 714 85 q 571 15 593 15 m 582 138 q 613 153 597 138 q 631 204 629 168 q 597 246 625 246 q 565 230 582 246 q 549 181 549 214 l 549 175 q 582 138 556 138 z "},"&":{"ha":792,"x_min":21,"x_max":750,"o":"m 671 -82 q 632 -74 653 -82 q 514 18 567 -39 l 490 39 q 260 -10 358 -10 q 21 171 29 -10 l 21 179 q 174 431 21 294 q 51 732 51 617 q 67 826 51 754 q 201 939 83 897 q 354 965 276 965 q 483 949 397 965 q 618 861 568 933 q 658 726 658 790 q 645 651 658 704 q 569 534 632 599 q 432 426 506 469 q 509 363 483 392 q 553 307 535 335 l 554 304 q 640 358 624 358 q 650 358 643 358 q 671 342 657 357 q 701 286 701 310 q 657 222 701 258 q 626 182 626 199 q 631 169 626 179 q 667 125 635 158 q 733 50 693 99 q 750 3 750 28 q 744 -30 750 -7 q 707 -72 739 -53 q 671 -82 692 -82 m 281 167 q 374 183 326 167 q 342 222 357 201 q 278 294 313 260 l 251 268 q 199 199 199 222 q 202 185 199 194 q 251 168 206 175 q 281 167 265 167 m 296 558 q 353 610 317 569 q 413 696 389 650 q 425 742 425 722 q 416 767 425 757 q 386 778 407 778 q 345 773 375 778 q 274 740 315 768 q 233 663 233 711 q 296 558 233 618 z "},"'":{"ha":156,"x_min":7,"x_max":149,"o":"m 82 833 l 63 833 q 49 836 56 833 q 35 856 42 839 q 22 910 29 872 q 7 1017 15 949 l 7 1021 q 14 1038 7 1031 q 32 1046 21 1044 l 88 1047 q 120 1047 106 1047 q 142 1038 135 1046 q 149 1021 149 1029 l 149 1017 q 133 910 140 949 q 117 856 125 872 q 100 836 108 839 q 82 833 92 833 z "},"‘":{"ha":156,"x_min":7,"x_max":149,"o":"m 82 833 l 63 833 q 49 836 56 833 q 35 856 42 839 q 22 910 29 872 q 7 1017 15 949 l 7 1021 q 14 1038 7 1031 q 32 1046 21 1044 l 88 1047 q 120 1047 106 1047 q 142 1038 135 1046 q 149 1021 149 1029 l 149 1017 q 133 910 140 949 q 117 856 125 872 q 100 836 108 839 q 82 833 92 833 z "},"’":{"ha":156,"x_min":7,"x_max":149,"o":"m 82 833 l 63 833 q 49 836 56 833 q 35 856 42 839 q 22 910 29 872 q 7 1017 15 949 l 7 1021 q 14 1038 7 1031 q 32 1046 21 1044 l 88 1047 q 120 1047 106 1047 q 142 1038 135 1046 q 149 1021 149 1029 l 149 1017 q 133 910 140 949 q 117 856 125 872 q 100 836 108 839 q 82 833 92 833 z "},"(":{"ha":369,"x_min":24,"x_max":326,"o":"m 244 -1 q 138 104 196 -1 q 24 519 24 308 q 44 684 24 592 q 120 860 65 776 q 261 971 175 943 q 326 896 326 963 q 297 835 326 861 q 167 624 190 757 q 157 513 157 568 q 175 365 157 438 q 276 144 213 229 q 308 78 308 103 q 304 54 308 67 q 244 -1 276 -1 z "},")":{"ha":369,"x_min":42,"x_max":346,"o":"m 125 -1 q 65 54 93 -1 q 61 78 61 67 q 93 144 61 103 q 194 365 157 229 q 211 508 211 436 q 195 661 211 565 q 71 835 179 757 q 42 899 42 863 q 47 935 42 907 q 108 971 53 964 q 248 860 193 943 q 328 672 303 776 q 346 519 346 592 l 344 478 q 232 104 333 285 q 149 7 194 36 q 125 -1 136 -1 z "},"*":{"ha":339,"x_min":15,"x_max":324,"o":"m 193 722 q 162 725 171 722 q 153 738 153 728 l 149 843 q 58 785 97 807 q 44 779 49 779 l 40 781 l 38 786 q 25 814 25 810 q 31 824 25 819 q 124 892 78 857 l 33 950 q 15 967 15 961 q 16 970 15 968 q 21 976 17 972 q 29 986 25 981 q 38 998 33 992 q 45 1006 43 1004 q 50 1008 47 1008 q 56 1006 51 1008 q 65 1000 61 1004 q 146 944 111 969 q 144 1038 146 992 q 150 1064 144 1063 l 171 1063 q 187 1061 179 1061 q 199 1060 194 1061 q 204 1044 204 1058 l 204 949 l 275 1000 q 296 1011 289 1011 q 299 1009 297 1011 q 304 1001 301 1007 q 310 990 307 996 q 317 977 313 983 q 322 968 321 971 q 324 963 324 965 q 314 954 324 960 q 222 892 304 949 l 314 828 q 324 815 324 819 l 322 813 l 318 808 q 294 785 300 785 q 203 840 290 785 q 202 790 203 811 q 201 755 201 769 q 199 726 201 740 q 193 722 197 722 z "},"+":{"ha":606,"x_min":14,"x_max":590,"o":"m 318 256 l 293 256 l 185 258 q 171 276 171 258 q 188 346 171 294 q 199 388 199 375 q 194 394 199 393 q 118 396 150 394 l 93 396 q 36 399 58 396 q 14 424 14 403 q 21 471 14 440 l 24 486 q 36 528 28 515 q 68 543 44 540 q 114 544 85 544 l 174 544 q 217 543 203 542 q 227 543 221 543 q 236 560 233 543 l 238 563 q 275 693 261 665 q 303 710 285 710 l 310 710 q 383 711 354 710 l 410 713 q 461 700 453 713 q 464 685 464 696 q 450 613 464 661 l 433 549 l 532 550 q 572 548 553 550 q 590 529 590 546 q 582 488 590 515 q 574 457 578 476 q 540 399 563 401 q 397 397 508 397 l 393 385 q 363 276 378 338 q 318 256 356 258 z "},",":{"ha":263,"x_min":-89,"x_max":246,"o":"m -24 -126 q -60 -122 -42 -126 q -86 -107 -78 -117 q -89 -101 -89 -104 q -33 -60 -89 -86 q 9 -36 -6 -49 q 24 -4 24 -24 l 22 8 q 17 61 17 38 q 46 141 17 106 q 135 176 75 176 q 218 144 182 176 q 246 79 246 117 q 236 19 246 49 q 128 -95 203 -64 q -24 -126 53 -126 z "},"-":{"ha":618,"x_min":17,"x_max":601,"o":"m 61 368 l 47 368 q 22 374 26 368 q 17 396 17 381 l 18 418 q 21 490 21 443 q 24 532 22 519 q 31 547 25 544 q 50 549 36 549 q 290 546 100 549 q 533 540 479 543 q 597 529 593 536 q 601 513 601 522 q 600 497 600 506 q 594 415 599 436 q 575 393 590 393 q 61 368 317 378 z "},".":{"ha":292,"x_min":17,"x_max":274,"o":"m 156 -3 q 71 22 119 -3 q 17 124 22 46 q 133 219 33 219 q 220 194 172 219 q 274 100 268 169 q 206 6 267 25 q 156 -3 181 -3 z "},"/":{"ha":635,"x_min":43,"x_max":594,"o":"m 150 0 l 140 1 q 93 19 115 7 l 81 25 q 43 54 43 40 l 43 58 q 257 682 118 271 q 314 838 283 760 l 342 915 q 353 919 343 919 q 444 897 376 919 q 571 860 539 868 q 594 844 594 857 q 590 826 594 839 q 513 674 582 803 q 260 188 317 299 l 164 6 q 150 0 160 0 z "},":":{"ha":306,"x_min":24,"x_max":281,"o":"m 163 538 q 78 562 126 538 q 24 664 29 586 q 140 760 40 760 q 227 735 179 760 q 281 640 275 711 q 213 546 274 565 q 163 538 188 538 m 163 211 q 78 235 126 211 q 24 338 29 260 q 140 433 40 433 q 227 408 179 433 q 281 313 275 383 q 213 219 274 239 q 163 211 188 211 z "},";":{"ha":424,"x_min":42,"x_max":401,"o":"m 113 131 q 71 136 90 131 q 42 156 42 143 q 53 171 42 163 q 97 196 74 186 q 154 251 154 218 l 153 265 q 147 317 147 293 q 176 397 147 361 q 261 433 206 433 q 349 401 311 433 q 376 335 376 374 q 367 276 376 306 q 257 161 333 193 q 113 131 186 131 m 283 538 q 198 562 246 538 q 144 664 150 586 q 261 760 161 760 q 347 735 300 760 q 401 640 394 711 q 333 546 394 565 q 283 538 308 538 z "},"<":{"ha":261,"x_min":11,"x_max":244,"o":"m 189 279 q 185 279 188 279 q 178 285 183 279 q 92 358 125 329 q 43 403 60 386 q 11 436 11 429 q 43 471 11 442 l 178 586 q 181 590 179 588 q 189 593 183 593 q 222 569 194 593 l 232 563 q 244 550 243 556 l 244 549 q 101 436 244 543 l 233 333 q 244 319 244 326 q 232 308 243 317 l 207 290 q 189 279 193 279 z "},"=":{"ha":632,"x_min":24,"x_max":608,"o":"m 68 503 l 54 503 q 28 509 33 503 q 24 531 24 515 l 25 553 q 28 625 28 578 q 31 665 29 653 q 37 680 32 678 q 49 682 42 682 l 294 681 q 540 675 486 678 q 605 663 601 671 q 608 649 608 656 l 607 632 q 601 549 606 571 q 582 528 597 528 q 68 503 324 511 m 582 257 l 183 261 q 43 271 68 264 q 24 288 24 275 l 25 308 q 31 391 26 369 q 49 413 35 413 q 564 438 307 428 l 572 438 q 603 430 599 438 q 608 406 608 422 q 607 386 608 397 q 606 358 606 375 l 603 315 q 601 274 603 286 q 594 259 599 261 q 582 257 589 257 z "},">":{"ha":261,"x_min":17,"x_max":250,"o":"m 75 279 l 74 279 q 39 301 67 279 l 29 308 q 17 321 18 317 l 17 322 q 160 436 17 326 q 17 549 17 543 l 17 553 q 29 563 18 556 l 39 569 q 72 593 67 593 q 81 589 76 593 q 168 514 93 576 q 250 436 250 446 q 219 403 250 431 l 83 285 q 75 279 78 279 z "},"?":{"ha":686,"x_min":69,"x_max":676,"o":"m 378 326 q 325 358 340 326 q 319 382 319 368 q 369 506 319 425 q 386 529 376 518 q 440 668 440 603 q 389 753 440 738 q 367 756 378 756 q 310 733 340 756 q 278 640 279 710 q 248 581 276 604 q 181 558 219 558 q 157 560 179 558 q 96 604 135 561 q 69 701 69 639 q 78 790 69 726 q 164 932 86 854 q 314 990 218 979 q 360 993 336 993 q 650 839 563 993 q 676 732 676 792 q 660 622 676 696 q 528 408 643 547 q 378 326 456 326 m 394 0 q 285 31 347 0 q 217 161 222 63 q 365 282 238 282 q 474 251 414 282 q 543 131 535 219 q 456 10 535 36 q 394 0 425 0 z "},"@":{"ha":735,"x_min":19,"x_max":717,"o":"m 354 119 q 231 142 294 119 q 19 474 19 233 q 80 702 19 575 q 315 899 140 829 q 433 919 374 919 q 531 907 467 919 q 665 804 596 894 q 717 622 717 731 q 676 465 717 542 q 528 364 635 389 l 506 363 q 444 376 474 363 q 431 379 439 379 q 384 367 419 379 q 324 354 349 354 q 286 369 303 354 q 264 432 269 383 l 264 442 q 297 511 264 485 q 361 535 325 535 q 385 532 372 535 q 388 549 388 540 q 382 578 388 561 q 364 601 376 596 l 360 603 q 339 576 349 603 q 326 569 338 571 q 278 564 299 564 q 268 601 272 564 q 304 672 268 639 q 385 714 340 706 q 400 715 392 715 q 454 682 433 715 l 464 664 q 469 617 469 649 l 468 567 q 481 483 468 511 q 515 454 494 454 q 554 470 536 454 q 575 504 572 486 q 579 569 579 539 q 535 714 579 667 q 428 761 490 761 q 354 750 408 761 q 231 649 300 739 q 183 504 183 578 q 194 422 183 482 q 275 308 204 363 q 372 274 318 274 q 486 310 426 274 q 553 336 526 336 q 603 310 576 336 q 615 278 615 294 q 576 206 615 250 q 439 132 536 161 q 354 119 397 119 m 363 426 q 383 451 383 431 q 377 467 383 461 q 361 474 371 474 q 342 467 349 474 q 336 450 336 460 q 342 433 336 439 q 360 426 349 426 l 363 426 z "},"A":{"ha":656,"x_min":0,"x_max":650,"o":"m 447 0 q 379 3 388 0 q 349 88 354 11 q 340 396 340 179 q 299 400 317 400 q 258 387 271 400 q 240 326 246 374 q 199 121 226 235 q 146 4 172 15 q 128 0 138 0 l 117 1 l 88 1 q 35 6 64 1 q 0 32 7 10 q 121 657 51 350 l 171 890 q 228 946 181 928 q 358 967 282 967 q 442 959 401 967 q 489 935 482 951 q 607 333 569 629 q 650 57 626 197 q 611 21 650 33 q 447 0 543 0 m 338 644 q 359 648 354 644 q 364 660 364 651 q 331 757 364 679 q 328 763 329 763 q 324 758 325 763 q 282 660 282 674 q 317 644 282 644 l 338 644 z "},"B":{"ha":657,"x_min":15,"x_max":649,"o":"m 114 0 q 35 8 56 0 q 15 75 15 17 q 42 351 15 126 l 71 601 l 107 951 q 192 969 110 967 q 260 967 226 969 q 282 947 278 964 q 286 903 286 929 q 411 938 356 938 q 524 895 461 938 q 593 736 588 853 l 593 728 q 485 506 593 615 q 647 331 633 438 l 649 300 q 581 124 649 210 q 400 8 513 38 q 346 1 372 1 q 186 67 264 1 q 178 38 181 51 q 169 15 175 24 q 150 3 164 7 q 114 0 136 0 m 335 671 q 377 685 356 671 q 399 722 399 699 q 369 747 394 739 q 344 751 357 751 q 315 746 333 751 q 296 714 297 740 q 335 671 297 671 m 288 225 q 346 235 313 225 q 407 278 407 253 q 383 303 407 293 q 313 317 351 317 q 275 311 292 317 q 265 274 265 307 q 267 251 265 265 q 273 231 268 238 q 288 225 278 225 z "},"C":{"ha":578,"x_min":15,"x_max":569,"o":"m 290 0 q 115 99 183 3 q 25 342 47 196 q 15 469 15 404 q 38 672 15 553 q 147 903 61 790 q 288 993 207 976 q 321 997 304 997 q 529 838 436 997 q 569 697 569 771 q 547 667 569 675 q 492 658 524 660 l 457 654 q 442 659 449 654 q 433 671 435 664 q 360 740 406 740 q 313 729 350 740 q 240 551 276 718 q 233 465 233 506 q 251 350 233 413 q 317 265 269 288 q 344 258 331 258 q 425 304 382 258 q 443 328 438 318 q 460 339 449 339 q 537 328 518 339 q 556 300 556 317 l 556 294 q 470 103 543 197 q 290 0 397 8 z "},"D":{"ha":596,"x_min":33,"x_max":586,"o":"m 129 -7 q 78 8 99 -7 q 50 143 60 28 q 33 588 33 317 q 46 890 33 804 q 109 951 53 918 q 246 994 165 985 q 281 997 264 997 q 417 961 344 997 q 544 807 489 925 q 586 600 586 710 q 542 354 586 511 q 315 64 497 197 q 248 25 293 46 q 156 -4 203 4 q 129 -7 142 -7 m 306 458 q 327 465 313 458 q 359 495 342 471 q 376 540 376 519 q 360 586 376 565 q 303 615 333 615 q 277 606 290 615 q 264 556 264 596 q 281 471 264 490 q 306 458 292 458 z "},"E":{"ha":565,"x_min":25,"x_max":546,"o":"m 108 3 l 96 3 q 38 13 51 3 q 25 47 25 24 q 38 308 25 74 q 72 904 56 667 q 90 942 74 926 q 131 960 107 957 q 410 969 263 969 q 540 956 532 969 q 546 890 546 933 q 499 789 546 792 q 337 786 371 789 q 292 769 303 783 q 282 724 282 756 l 279 683 q 276 629 276 651 q 278 597 276 615 q 313 578 279 578 q 351 581 328 578 q 461 589 390 586 q 504 541 488 586 q 521 447 521 496 q 496 381 519 397 q 419 363 463 364 l 375 361 l 285 364 q 263 340 271 363 q 247 249 247 304 q 258 214 247 215 q 510 226 379 218 q 535 197 526 226 q 544 125 544 167 q 535 53 544 85 q 506 18 525 21 q 304 8 404 8 l 279 8 q 108 3 194 7 z "},"F":{"ha":513,"x_min":33,"x_max":499,"o":"m 238 0 l 74 0 q 56 6 63 0 q 50 81 50 13 l 50 163 q 38 654 43 488 l 33 863 q 46 953 33 938 q 65 967 53 961 q 183 974 89 974 l 400 969 l 444 971 q 481 964 467 971 q 497 921 494 957 q 499 872 499 903 q 496 701 499 813 q 472 654 496 654 l 379 654 l 256 650 q 235 588 235 631 q 253 525 235 544 q 375 556 326 542 q 456 572 429 572 l 463 572 q 486 533 486 571 q 485 505 486 529 q 464 374 485 481 q 432 354 460 356 l 418 354 q 365 358 394 354 q 306 363 335 361 q 260 351 276 363 l 260 279 q 264 68 260 143 l 265 29 q 257 8 265 17 q 238 0 249 0 z "},"G":{"ha":707,"x_min":11,"x_max":706,"o":"m 363 6 l 357 6 q 187 53 265 6 q 75 169 108 101 q 11 439 11 299 q 17 546 11 457 q 90 763 22 635 q 258 947 157 892 q 357 974 307 974 q 472 942 414 974 q 553 863 519 913 q 604 768 588 813 q 618 715 618 732 q 617 708 618 711 q 561 665 606 683 q 486 650 524 650 q 455 651 479 650 q 419 689 431 653 q 354 743 410 743 q 247 651 282 743 q 219 493 219 578 q 223 419 219 478 q 272 301 226 360 q 375 242 326 242 q 417 250 385 242 q 460 358 450 258 q 355 360 371 358 q 333 377 339 363 q 322 428 326 392 q 308 508 318 458 q 601 549 308 549 l 685 547 q 703 524 699 546 q 704 490 704 508 q 706 436 704 453 l 706 418 q 694 367 706 379 q 636 351 683 354 q 532 85 608 164 q 363 6 456 6 z "},"H":{"ha":649,"x_min":11,"x_max":614,"o":"m 113 4 q 80 32 88 4 q 71 90 72 60 q 53 249 71 107 q 11 640 28 442 q 49 706 11 685 q 125 736 86 726 q 129 738 126 738 q 163 743 147 743 q 213 703 199 743 q 229 583 228 663 l 231 561 q 276 575 256 569 q 335 600 315 585 q 356 649 356 615 l 356 658 q 343 888 343 842 q 351 935 343 924 q 385 950 360 947 q 540 971 493 969 q 599 943 589 971 q 606 881 606 922 l 604 840 q 614 117 604 568 q 609 76 614 93 q 583 56 604 60 q 475 40 515 40 q 415 59 438 40 q 389 208 393 78 l 388 258 q 384 308 386 283 q 376 345 382 332 q 358 358 369 358 l 353 357 q 293 338 322 351 q 271 303 271 328 q 278 208 271 268 q 289 90 289 114 q 286 63 289 71 q 183 19 275 44 q 113 4 126 4 z "},"I":{"ha":303,"x_min":39,"x_max":274,"o":"m 132 0 l 111 0 q 64 6 82 0 q 42 47 46 13 q 39 125 39 74 l 39 163 q 42 692 39 469 l 42 900 q 47 945 42 929 q 78 964 51 961 q 135 967 97 967 l 240 967 q 261 961 253 967 q 274 879 274 953 l 267 681 q 246 189 257 514 q 229 38 243 74 q 172 1 215 1 q 132 0 150 1 z "},"J":{"ha":586,"x_min":-10,"x_max":563,"o":"m 306 1 q 242 10 275 1 q 90 106 154 36 q 0 249 25 176 q -10 299 -10 276 q 14 351 -10 333 q 169 440 136 440 q 199 417 190 440 q 267 265 240 301 q 300 239 285 239 q 354 310 324 239 q 379 474 379 372 q 378 558 379 489 q 353 742 376 628 q 299 900 329 857 q 294 913 294 907 q 319 942 294 926 q 392 965 344 957 q 442 971 418 971 q 491 965 463 971 q 526 931 519 960 q 563 515 563 710 q 449 75 563 232 q 306 1 396 1 z "},"K":{"ha":717,"x_min":25,"x_max":726,"o":"m 529 4 q 511 8 522 4 q 476 43 500 11 q 321 242 400 146 l 278 296 q 296 179 288 226 q 310 72 310 110 q 303 33 310 44 q 197 7 288 7 l 128 6 q 86 10 100 6 q 67 53 67 18 l 67 57 q 50 410 61 236 q 38 667 43 538 q 29 818 35 761 q 25 893 25 864 q 27 928 25 908 q 51 954 29 947 q 186 964 81 964 q 251 947 240 964 q 263 894 263 931 l 260 857 q 258 828 258 843 l 253 731 q 249 621 249 657 q 254 600 249 600 q 268 613 258 600 q 431 797 371 726 q 558 919 531 919 q 615 829 586 919 l 622 811 q 649 726 649 746 q 640 702 649 714 q 603 669 632 690 q 508 597 549 629 q 418 526 468 565 l 344 468 q 517 293 444 365 q 688 115 639 169 q 726 51 726 71 q 719 39 726 47 q 656 25 711 31 l 621 19 q 529 4 546 4 z "},"L":{"ha":558,"x_min":38,"x_max":564,"o":"m 467 3 l 388 3 q 310 4 364 4 l 156 4 q 49 26 56 4 q 43 61 43 39 q 39 592 43 438 l 38 799 q 44 906 38 874 q 66 948 50 939 q 110 958 82 957 l 129 960 q 232 967 175 967 q 254 939 251 965 q 264 601 264 769 q 263 489 264 544 l 263 289 q 269 253 263 261 q 288 246 275 246 q 321 251 300 246 l 372 267 q 501 294 458 294 q 539 288 514 294 q 564 139 564 281 q 560 69 564 108 q 538 17 557 29 q 467 3 507 4 z "},"M":{"ha":899,"x_min":26,"x_max":876,"o":"m 113 1 q 68 4 92 1 q 35 17 44 7 q 26 38 26 26 q 47 522 26 246 q 67 914 61 717 q 96 957 69 947 q 207 963 115 963 q 267 961 233 963 q 319 951 300 960 q 343 926 339 943 q 351 893 347 910 q 382 785 365 838 q 431 654 399 732 q 590 901 565 867 q 646 956 621 944 q 742 967 671 967 q 794 963 774 967 q 822 945 815 958 q 832 828 828 932 l 864 243 q 876 86 876 108 q 875 53 876 75 q 851 31 874 32 q 735 17 783 24 q 657 11 688 11 q 619 15 642 11 q 588 61 597 18 q 572 206 578 104 q 560 367 568 271 l 526 301 q 435 175 467 175 q 347 333 401 175 l 324 226 q 288 74 301 119 q 258 17 275 28 q 207 6 240 6 l 181 4 q 113 1 140 1 z "},"N":{"ha":717,"x_min":13,"x_max":700,"o":"m 511 0 l 492 0 q 461 1 474 0 q 440 13 449 3 q 419 46 432 22 l 404 74 q 276 288 354 165 q 260 179 268 226 l 244 85 q 235 57 242 64 q 213 50 229 50 q 138 63 200 50 l 97 69 q 26 99 46 75 q 13 164 13 115 q 18 244 13 186 q 57 508 24 303 q 115 901 111 850 q 124 947 119 933 q 147 964 129 961 q 218 967 164 967 l 276 967 q 311 963 300 967 q 326 938 322 960 q 357 804 342 875 q 439 454 379 704 l 460 651 q 481 828 472 775 q 508 893 490 882 q 546 901 521 901 q 571 899 565 901 q 673 889 646 897 q 700 860 700 881 l 700 857 q 657 418 681 638 l 621 61 q 619 47 621 53 q 615 15 618 25 q 597 4 611 6 q 511 0 572 0 z "},"O":{"ha":613,"x_min":10,"x_max":601,"o":"m 192 1 q 103 28 164 1 q 17 208 43 54 q 10 293 10 249 q 65 585 10 421 q 317 935 150 828 q 422 967 374 967 q 594 771 561 967 q 601 671 601 722 q 549 383 601 546 q 365 85 497 219 q 192 1 269 1 m 301 389 q 361 419 326 389 q 415 507 396 450 q 421 547 421 531 q 393 582 421 582 q 330 549 367 582 q 275 453 293 517 q 272 426 272 438 q 301 389 272 389 z "},"P":{"ha":672,"x_min":32,"x_max":674,"o":"m 117 1 q 92 3 115 1 q 58 63 68 4 q 47 261 47 121 q 40 492 44 390 q 32 825 35 647 l 32 888 q 46 914 32 911 q 292 979 192 979 q 474 951 372 979 q 640 822 593 917 q 674 690 674 760 q 658 586 674 657 q 549 438 643 515 q 293 357 456 360 q 281 317 281 354 l 281 297 q 283 225 281 265 q 289 117 289 167 q 288 72 289 107 q 263 29 288 38 l 257 26 q 117 1 161 1 m 365 640 q 385 643 369 640 q 442 688 400 646 q 453 711 453 700 q 443 728 453 717 q 400 739 433 739 q 360 731 379 739 q 332 683 332 714 q 340 654 332 668 q 365 640 347 640 z "},"Q":{"ha":642,"x_min":14,"x_max":619,"o":"m 450 -85 q 433 -70 443 -85 q 411 -31 424 -56 q 388 11 399 -6 q 369 28 378 28 l 367 28 q 267 6 313 6 q 113 85 189 6 q 17 347 36 164 q 14 417 14 382 q 78 733 14 568 q 361 981 193 981 q 532 888 458 981 q 619 557 619 779 l 618 511 q 547 239 594 308 q 535 206 535 218 q 548 172 535 194 q 596 101 561 150 q 617 68 617 74 q 599 38 617 57 q 479 -65 575 11 q 450 -85 454 -85 m 278 407 q 333 449 301 449 q 379 419 358 449 q 383 425 383 424 q 408 515 399 449 q 414 583 414 551 q 408 656 414 613 q 357 699 401 699 q 301 631 324 683 q 268 474 268 554 q 278 407 268 436 z "},"R":{"ha":722,"x_min":14,"x_max":719,"o":"m 143 4 l 96 6 q 21 19 33 6 q 14 53 14 28 q 17 94 14 69 q 61 521 36 304 l 99 881 q 286 978 107 951 l 336 979 q 582 905 476 979 q 714 714 688 831 q 719 661 719 688 q 642 492 719 575 q 332 393 564 408 l 331 392 q 428 306 331 388 q 610 144 553 201 q 635 107 635 117 q 633 103 635 104 q 490 14 542 14 q 457 19 485 14 q 333 129 429 24 l 250 213 l 250 136 l 251 92 q 246 36 251 60 q 207 8 240 13 q 143 4 185 4 m 363 635 q 408 646 382 635 q 451 672 433 657 q 468 699 468 686 q 453 721 468 708 q 401 740 439 733 q 367 744 382 744 q 338 740 350 744 q 329 724 331 738 q 324 685 324 692 q 347 636 324 643 l 363 635 z "},"S":{"ha":626,"x_min":17,"x_max":613,"o":"m 279 0 q 189 11 236 0 q 38 154 79 46 q 17 264 17 210 q 36 369 17 317 q 63 397 46 393 q 93 401 74 401 l 114 400 q 210 381 186 400 q 243 343 233 361 q 275 317 260 317 q 296 322 283 317 q 340 382 340 343 q 340 404 340 383 q 274 460 339 425 l 244 474 q 112 549 165 508 q 38 671 58 590 q 31 732 31 703 q 78 867 31 803 q 224 961 126 931 q 347 981 285 981 q 421 974 383 981 q 557 915 514 957 q 611 789 600 874 q 613 760 613 776 q 582 601 613 653 q 558 586 572 586 q 518 610 542 586 q 472 678 494 639 q 382 774 421 774 q 351 763 367 774 q 335 735 335 753 q 356 683 335 718 q 460 556 378 649 l 513 493 q 578 314 578 410 q 564 210 578 288 q 447 56 550 133 q 279 0 376 0 z "},"T":{"ha":596,"x_min":-8,"x_max":604,"o":"m 274 3 q 242 6 260 3 q 224 39 225 10 q 188 700 213 278 q 178 715 186 715 q 142 710 165 715 q 99 703 119 706 q 46 694 65 694 q 17 705 28 694 q 0 793 6 715 l -8 876 q -7 890 -8 882 q 7 901 -6 897 q 49 908 19 904 l 104 917 l 346 956 q 507 981 454 971 q 542 985 526 985 q 574 971 563 985 q 593 903 586 957 l 597 881 q 604 821 604 850 q 578 786 603 792 q 499 776 531 779 q 434 765 450 772 q 418 738 418 758 l 460 131 q 463 86 463 106 q 445 24 463 40 q 361 8 428 8 l 304 4 l 274 3 z "},"U":{"ha":658,"x_min":25,"x_max":632,"o":"m 472 -61 q 415 -40 428 -61 q 408 0 408 -28 q 418 86 408 32 q 235 6 311 6 q 119 63 186 6 q 32 354 53 119 q 25 514 25 429 q 57 914 25 693 q 78 958 58 949 q 150 967 97 967 q 196 968 175 967 l 222 969 q 285 951 271 969 q 290 925 290 943 q 271 822 290 892 q 225 482 225 639 q 258 285 225 353 q 296 250 276 250 q 362 328 321 250 q 444 779 403 406 q 497 822 451 808 q 556 832 526 832 q 602 826 572 832 q 632 785 632 821 q 613 293 613 515 l 614 190 l 614 78 q 610 -12 614 19 q 584 -52 606 -44 q 521 -60 563 -60 l 494 -60 l 472 -61 z "},"V":{"ha":649,"x_min":-7,"x_max":653,"o":"m 354 0 q 329 1 343 1 l 292 0 q 247 7 261 0 q 225 50 233 14 l 197 154 q -4 869 75 657 q -7 883 -7 876 q 11 913 -7 899 q 53 933 29 926 l 75 943 q 153 969 124 968 q 172 960 168 969 q 350 467 175 950 l 428 732 q 469 875 454 824 q 497 947 485 926 q 521 971 508 968 l 532 972 q 565 967 544 972 q 633 952 614 960 q 653 931 653 944 q 539 442 653 924 q 438 28 446 49 q 412 4 431 8 q 354 0 393 0 z "},"W":{"ha":857,"x_min":-1,"x_max":863,"o":"m 238 -1 q 209 3 224 -1 q 186 38 194 7 q 71 564 118 335 q 1 890 39 718 q -1 911 -1 901 q 13 939 -1 929 q 65 957 26 949 q 144 972 118 972 q 166 969 151 972 q 186 924 181 967 q 236 661 213 793 l 268 490 q 351 665 289 500 q 392 761 375 721 q 418 806 410 801 q 461 813 432 813 q 516 806 490 813 q 543 788 542 799 l 542 710 q 553 518 542 607 q 624 650 582 568 q 739 872 668 743 q 775 886 750 886 q 842 864 808 886 q 863 828 863 849 q 829 724 863 818 q 617 35 657 214 q 515 1 608 1 q 457 14 463 1 q 444 93 449 57 l 418 275 l 403 208 q 368 67 382 110 q 335 13 354 24 q 278 3 317 3 q 253 1 263 3 q 238 -1 244 -1 z "},"X":{"ha":856,"x_min":-14,"x_max":871,"o":"m 28 -1 q -14 17 -14 -1 q 53 121 -14 40 q 160 262 113 199 q 303 460 208 325 q 213 614 253 547 q 72 896 72 846 q 115 942 72 932 q 303 988 264 988 q 344 961 338 988 l 461 665 q 542 772 508 726 q 640 898 607 861 q 699 935 674 935 q 768 914 725 935 l 792 903 q 855 872 839 883 q 871 851 871 861 q 867 841 871 849 q 825 790 864 833 q 576 463 696 629 q 553 426 553 435 q 564 404 553 422 q 654 240 606 338 q 674 181 674 200 q 673 167 674 179 q 603 111 672 156 q 472 35 506 35 q 456 36 471 35 q 413 135 440 38 l 386 213 l 346 150 q 281 55 306 85 q 226 16 256 25 q 143 6 197 7 q 71 1 103 4 q 28 -1 46 -1 z "},"Y":{"ha":696,"x_min":-14,"x_max":708,"o":"m 238 -1 l 229 -1 q 209 3 214 -1 q 204 22 204 7 q 210 165 204 71 q 222 426 214 296 q 213 458 222 443 l -4 811 q -14 835 -14 826 q -13 841 -14 836 q 6 858 -12 846 q 124 940 111 940 q 142 928 133 940 q 318 663 154 911 l 331 644 q 343 660 340 651 l 346 663 l 531 944 l 533 950 q 558 968 546 968 q 582 953 569 968 l 688 826 l 689 824 q 708 793 708 803 q 568 574 708 782 l 536 524 q 465 418 501 469 q 460 403 460 411 l 444 210 q 435 61 435 74 l 435 42 q 434 24 435 29 q 417 15 433 18 l 415 15 q 351 6 385 7 l 238 -1 z "},"Z":{"ha":749,"x_min":6,"x_max":743,"o":"m 642 -78 q 543 -60 631 -78 q 32 44 292 -14 q 6 75 6 51 q 7 92 6 76 q 31 142 8 107 q 83 207 53 176 l 231 356 q 393 529 393 515 q 389 532 393 532 l 385 531 q 217 494 281 510 q 101 474 140 474 q 60 486 79 474 q 33 610 40 499 l 26 671 q 24 703 24 693 q 28 717 24 713 q 46 726 33 721 l 47 726 q 632 960 526 931 q 682 968 663 968 q 713 956 701 968 q 725 908 724 944 l 729 865 q 743 738 743 767 q 735 692 743 711 q 704 647 726 672 q 322 185 511 417 q 571 197 517 197 q 643 192 604 197 q 689 144 682 188 q 692 110 692 131 q 682 -1 692 67 q 681 -8 681 -4 q 664 -71 676 -58 q 642 -78 657 -78 z "},"[":{"ha":394,"x_min":38,"x_max":351,"o":"m 204 0 l 190 0 q 127 5 161 0 q 65 31 93 10 q 39 100 43 42 l 38 160 l 44 547 q 47 807 47 678 l 47 839 q 53 899 47 868 q 163 964 65 964 q 203 963 181 964 q 251 961 225 961 q 343 917 321 957 q 351 883 351 900 q 336 840 351 861 q 242 804 311 804 q 214 807 233 804 q 199 810 204 810 q 188 807 193 810 q 178 784 182 804 q 174 715 175 764 q 174 579 174 667 l 174 479 l 172 196 q 187 151 172 158 q 221 143 201 143 l 235 143 q 273 138 253 143 q 313 106 293 132 q 321 64 321 82 q 204 0 321 6 z "},"\\":{"ha":583,"x_min":42,"x_max":542,"o":"m 318 0 q 301 16 310 0 q 250 183 293 32 q 163 489 215 313 q 99 710 125 615 q 42 910 42 907 q 76 938 42 925 l 114 951 q 153 961 140 961 q 165 954 161 961 q 350 550 257 747 q 508 203 454 328 l 542 125 q 454 69 542 111 q 350 15 413 49 q 318 0 325 0 z "},"]":{"ha":394,"x_min":42,"x_max":357,"o":"m 231 0 q 190 1 213 0 q 142 3 168 3 q 51 47 72 7 q 42 82 42 64 q 57 124 42 103 q 151 160 82 160 q 179 157 163 160 q 194 154 189 154 q 206 157 200 154 q 215 180 211 160 q 219 249 218 200 q 219 385 219 297 l 219 485 l 221 767 q 206 813 221 804 q 171 821 192 821 l 158 821 q 120 826 140 821 q 82 858 100 832 q 72 901 72 883 q 99 946 72 928 q 213 964 126 964 q 269 959 238 964 q 328 933 300 954 q 354 864 350 921 q 357 786 357 836 l 354 664 q 347 236 347 425 l 346 125 q 340 65 346 96 q 231 0 328 0 z "},"^":{"ha":342,"x_min":14,"x_max":328,"o":"m 285 821 l 283 821 q 171 964 278 821 l 68 832 q 54 821 61 821 q 43 833 51 822 l 36 843 q 14 878 14 869 l 14 879 q 93 972 14 882 q 161 1047 143 1032 l 171 1054 q 249 972 181 1054 l 321 888 q 328 878 328 881 l 326 871 l 297 833 q 285 821 290 822 z "},"_":{"ha":819,"x_min":17,"x_max":804,"o":"m 76 -15 l 65 -15 q 23 -8 29 -15 q 17 15 17 -1 l 18 36 q 22 107 22 69 q 26 149 24 136 q 35 163 28 161 q 51 165 42 165 l 539 161 q 747 156 701 158 q 803 143 799 151 l 804 131 l 803 114 q 794 31 800 53 q 769 10 789 10 q 76 -15 422 -6 z "},"a":{"ha":643,"x_min":14,"x_max":624,"o":"m 454 3 q 432 86 439 3 q 246 15 347 15 q 101 59 168 15 q 15 203 35 103 l 14 226 q 108 422 14 347 q 283 485 186 485 q 350 478 315 485 q 357 528 357 501 q 343 608 357 558 q 294 674 329 657 q 283 676 289 676 q 226 601 254 676 q 188 582 222 588 q 76 568 154 576 q 56 567 65 568 q 29 674 39 567 l 29 683 q 87 825 29 753 q 235 944 144 897 q 392 986 314 986 q 447 983 400 986 q 543 896 494 981 q 560 852 553 878 q 574 769 567 826 q 607 299 581 699 l 624 61 q 622 49 624 56 q 604 37 619 43 q 553 23 589 31 q 454 3 518 15 m 283 185 q 331 205 311 185 q 350 253 350 225 q 331 301 350 281 q 283 321 311 321 q 235 301 254 321 q 215 253 215 281 q 235 205 215 225 q 283 185 254 185 z "},"b":{"ha":747,"x_min":24,"x_max":743,"o":"m 201 0 q 63 6 167 0 l 64 72 q 56 341 64 178 q 28 876 49 504 l 24 956 q 25 972 24 964 q 33 984 26 981 q 50 988 40 988 l 64 986 q 197 976 146 979 q 295 966 269 975 q 321 925 321 957 q 308 814 321 913 q 276 533 294 708 q 422 636 340 596 q 518 658 469 658 q 594 646 556 658 q 728 508 697 607 q 743 390 743 447 q 467 32 743 100 q 383 25 424 25 q 323 28 354 25 q 261 32 292 32 l 260 26 q 254 8 260 15 q 201 0 249 0 m 451 251 q 499 271 479 251 q 518 319 518 290 q 499 367 518 347 q 451 386 479 386 q 403 367 424 386 q 383 319 383 347 q 403 271 383 290 q 451 251 424 251 z "},"c":{"ha":606,"x_min":14,"x_max":600,"o":"m 283 21 q 93 143 168 21 q 14 447 14 274 q 56 695 14 572 q 183 896 99 818 q 338 960 251 960 q 375 957 356 960 q 543 828 482 929 q 600 642 600 731 l 600 633 q 551 603 600 603 q 481 625 485 603 l 467 649 q 379 707 424 707 q 340 699 371 707 q 276 624 310 692 q 242 461 242 557 l 242 453 q 344 253 254 253 q 418 306 385 253 q 440 318 425 318 l 450 317 l 479 307 q 533 289 513 299 q 554 260 554 279 q 492 133 544 190 q 283 21 386 21 z "},"d":{"ha":729,"x_min":3,"x_max":711,"o":"m 442 -28 l 435 -28 q 413 -7 417 -28 q 410 31 410 8 l 411 65 l 411 107 q 303 36 351 51 q 226 26 271 26 q 174 29 201 26 q 3 256 3 50 q 7 326 3 271 q 42 449 11 381 q 132 592 69 521 q 274 681 194 663 q 301 683 288 683 q 431 614 367 683 q 456 592 450 592 q 460 603 460 592 l 453 694 q 436 931 447 806 l 435 947 q 444 977 435 965 q 508 989 454 989 q 656 985 560 989 l 676 985 l 693 983 q 711 938 711 979 l 710 911 q 649 90 681 647 q 640 31 649 46 q 596 5 632 15 q 476 -21 560 -6 q 442 -28 460 -25 m 289 251 q 337 271 317 251 q 357 319 357 290 q 337 367 357 347 q 289 386 317 386 q 242 367 261 386 q 222 319 222 347 q 242 271 222 290 q 289 251 261 251 z "},"e":{"ha":683,"x_min":11,"x_max":676,"o":"m 297 25 q 169 56 251 25 q 33 238 86 88 q 11 381 11 301 q 51 622 11 488 q 243 882 132 811 q 417 940 332 940 q 497 931 436 940 q 611 849 557 922 q 644 749 644 804 q 622 645 644 714 q 442 481 600 576 q 344 449 397 457 q 272 432 310 443 q 215 351 215 408 q 250 272 215 304 q 300 254 271 254 q 358 268 326 254 q 428 356 397 292 q 475 430 449 394 q 540 483 501 465 l 547 485 q 596 467 564 485 q 656 421 628 450 q 676 375 676 397 l 675 361 q 458 72 589 147 q 297 25 375 25 m 392 647 q 440 667 419 647 q 460 714 460 686 q 440 763 460 743 q 392 782 419 782 q 344 763 364 782 q 324 714 324 743 q 344 667 324 686 q 392 647 364 647 z "},"f":{"ha":647,"x_min":7,"x_max":649,"o":"m 201 7 l 157 8 q 92 12 111 8 q 69 26 72 15 q 67 67 67 36 l 67 196 q 72 408 67 311 q 64 421 72 421 q 44 419 51 421 l 21 419 q 14 433 14 421 q 7 599 14 515 q 15 604 7 603 q 65 606 54 604 q 78 617 76 607 q 113 761 79 688 q 200 881 147 835 q 376 957 296 957 q 445 947 392 957 q 557 860 499 936 q 632 700 615 783 q 649 579 649 626 q 625 503 649 535 q 493 468 601 472 q 473 474 479 468 q 467 510 467 481 q 471 586 471 551 q 442 718 471 679 q 381 757 413 757 q 334 740 367 757 q 290 632 301 722 q 342 636 322 636 q 365 635 351 636 q 383 619 378 633 q 389 574 389 606 q 394 501 394 518 q 382 452 394 467 q 296 433 369 438 q 278 426 283 432 q 272 398 274 419 q 271 331 271 376 q 272 293 272 314 l 271 244 q 267 51 271 83 q 244 13 264 19 q 201 7 231 7 z "},"g":{"ha":700,"x_min":19,"x_max":674,"o":"m 272 3 l 217 3 q 90 81 163 3 q 29 281 29 144 q 32 336 29 307 q 110 364 38 364 q 199 331 190 364 q 308 242 215 242 q 410 286 364 242 q 450 396 450 325 q 443 461 450 426 q 207 400 294 400 q 139 408 190 400 q 57 474 88 415 q 19 632 19 543 q 105 838 19 758 q 306 936 190 918 q 371 942 340 942 q 485 911 440 942 l 485 918 q 490 943 485 932 q 516 961 494 954 q 586 968 538 968 q 647 949 629 968 q 669 869 664 931 q 674 681 674 807 l 674 507 q 621 213 674 308 q 453 51 568 117 q 272 3 374 3 m 318 625 q 366 645 346 625 q 386 693 386 665 q 366 741 386 721 q 318 761 346 761 q 271 741 290 761 q 251 693 251 721 q 271 645 251 665 q 318 625 290 625 z "},"h":{"ha":657,"x_min":32,"x_max":643,"o":"m 501 1 l 475 1 q 424 5 446 1 q 401 24 401 8 l 401 28 q 419 171 419 99 q 368 361 419 317 q 329 376 347 376 q 305 369 321 376 q 288 310 289 363 q 292 223 289 260 q 297 148 294 186 q 303 58 300 110 q 118 4 303 4 l 67 4 q 54 56 58 4 q 43 426 49 142 q 35 847 36 839 l 32 906 q 64 967 32 967 l 153 968 q 229 971 192 971 q 324 967 278 971 q 332 928 332 958 q 314 751 332 874 q 289 513 293 622 q 435 657 358 611 q 511 682 476 682 q 583 653 542 682 q 639 471 625 625 q 643 368 643 419 q 596 40 643 203 q 501 1 585 1 z "},"i":{"ha":350,"x_min":15,"x_max":343,"o":"m 160 3 l 110 3 q 81 9 92 3 q 66 54 69 15 q 63 183 63 93 l 61 321 q 54 603 57 451 l 54 621 q 57 637 54 631 q 75 643 60 643 q 127 640 92 643 q 228 633 163 638 q 232 632 231 633 q 300 617 290 632 q 304 593 304 610 q 297 536 304 572 l 278 406 q 235 46 254 251 q 229 17 233 25 q 210 6 225 8 q 160 3 194 3 m 194 688 q 85 719 146 688 q 15 840 24 750 q 103 960 25 935 q 165 971 135 971 q 274 940 213 971 q 343 810 336 908 q 194 688 321 688 z "},"j":{"ha":599,"x_min":-8,"x_max":585,"o":"m 314 0 q 243 10 281 0 q 91 108 156 38 q 1 249 26 178 q -8 299 -8 276 q 15 351 -8 333 q 171 440 138 440 q 200 418 192 440 q 264 268 242 303 q 290 246 279 246 q 332 322 308 246 q 350 438 350 378 q 308 553 350 496 q 304 564 304 558 q 334 596 304 579 q 418 622 364 613 q 476 628 449 628 q 528 624 497 628 q 561 589 558 619 q 564 514 564 551 q 544 279 564 407 q 451 64 524 151 q 314 0 400 0 m 436 688 q 326 719 388 688 q 257 840 265 750 q 344 960 267 935 q 407 971 376 971 q 516 940 454 971 q 585 810 578 908 q 436 688 563 688 z "},"k":{"ha":640,"x_min":19,"x_max":646,"o":"m 192 -1 q 150 1 174 -1 q 94 3 126 3 q 43 13 61 4 q 19 93 19 24 q 46 419 19 154 q 88 853 64 585 q 99 934 93 910 q 117 963 104 958 q 149 968 129 968 l 236 969 q 295 963 274 969 q 317 914 317 956 q 307 810 317 879 q 286 603 297 735 q 390 672 349 643 q 499 732 474 732 q 544 693 524 732 l 569 657 q 586 625 586 635 q 576 608 586 618 q 535 579 565 599 q 379 469 486 550 q 640 138 582 210 q 646 125 646 131 l 644 117 q 521 19 639 103 q 508 15 515 15 q 463 41 490 15 q 400 119 436 67 q 328 228 364 172 q 267 319 292 285 q 250 147 257 229 l 238 17 q 192 -1 236 -1 z "},"l":{"ha":304,"x_min":15,"x_max":279,"o":"m 160 1 l 136 1 q 113 3 125 1 q 99 15 100 4 q 57 458 79 240 q 22 838 31 713 q 15 922 15 906 q 117 946 15 935 q 233 963 163 951 q 263 967 257 967 q 272 965 265 967 q 279 924 279 963 q 272 771 279 896 q 256 483 265 669 l 254 454 q 229 18 240 185 q 214 6 229 10 q 160 1 199 1 z "},"m":{"ha":1106,"x_min":28,"x_max":1079,"o":"m 143 0 q 83 14 97 0 q 69 76 69 28 l 67 104 q 31 826 38 460 q 29 874 31 856 q 28 904 28 892 q 31 928 28 917 q 51 944 33 939 q 142 957 68 949 l 181 963 q 222 967 206 967 q 253 959 242 967 q 268 892 265 951 q 271 775 271 833 q 263 563 271 668 q 283 588 265 563 q 579 878 436 799 q 649 900 617 900 q 729 858 694 900 q 753 801 750 832 q 749 731 753 764 q 744 701 746 717 q 918 861 846 835 q 961 869 942 869 q 1040 822 1006 869 q 1079 663 1075 775 l 1079 606 q 1060 307 1079 444 q 1039 94 1047 206 q 1010 42 1038 53 q 921 32 983 32 l 874 29 q 856 93 856 32 q 863 264 856 169 q 874 435 874 379 q 847 532 874 532 l 839 531 q 737 395 760 493 q 708 174 714 297 q 694 40 703 58 q 676 26 690 31 q 626 18 661 22 q 590 12 610 15 q 557 8 569 8 q 533 14 544 8 q 519 54 521 19 q 524 161 519 103 l 529 235 q 533 407 533 301 q 508 468 532 444 q 488 475 499 475 q 401 394 451 475 q 324 178 350 314 q 297 49 304 69 q 264 10 288 18 q 189 3 240 3 q 167 1 179 3 q 143 0 156 0 z "},"n":{"ha":768,"x_min":32,"x_max":735,"o":"m 635 1 l 575 1 q 490 90 490 7 l 490 99 q 517 285 490 179 q 543 476 543 392 l 543 499 q 488 572 531 572 q 440 560 476 572 q 341 437 403 547 q 265 146 279 326 q 228 33 260 58 q 160 8 197 8 l 156 8 q 124 6 139 8 q 96 3 108 3 q 65 10 82 3 q 32 175 32 24 l 36 347 q 81 939 49 919 q 136 953 99 949 l 140 953 q 236 967 217 967 q 269 961 251 967 q 288 899 286 956 l 289 867 q 282 711 289 810 l 281 694 q 503 921 401 878 q 585 939 547 939 q 681 898 632 939 q 733 754 731 857 l 735 617 q 718 117 735 436 l 713 33 q 635 1 710 4 z "},"o":{"ha":714,"x_min":8,"x_max":703,"o":"m 256 0 q 140 28 215 0 q 15 250 64 56 q 8 333 8 290 q 58 583 8 439 q 228 842 107 728 q 453 935 326 935 q 513 929 482 935 q 651 817 603 901 q 703 636 700 733 l 703 613 q 620 276 703 428 q 413 49 538 125 q 256 0 331 0 m 356 381 q 403 400 383 381 q 424 449 424 419 q 403 496 424 476 q 356 515 383 515 q 308 496 328 515 q 289 449 289 476 q 308 400 289 419 q 356 381 328 381 z "},"p":{"ha":681,"x_min":32,"x_max":678,"o":"m 117 1 q 63 11 74 1 q 53 61 53 21 l 46 458 q 38 676 44 547 q 32 865 32 806 q 47 945 32 926 q 97 964 63 964 q 122 965 111 964 q 143 967 133 967 q 169 963 157 967 q 189 940 182 960 q 203 871 196 919 q 424 951 308 951 q 664 771 597 951 q 678 671 678 722 q 639 500 678 600 q 496 308 600 400 q 261 201 392 215 l 261 165 q 263 104 261 131 l 264 76 q 259 34 264 53 q 223 8 254 15 q 117 1 192 1 m 356 550 q 403 569 383 550 q 422 617 422 589 q 403 665 422 646 q 356 685 383 685 q 308 665 328 685 q 288 617 288 646 q 308 569 288 589 q 356 550 328 550 z "},"q":{"ha":743,"x_min":4,"x_max":715,"o":"m 539 -1 q 483 13 504 -1 q 453 104 461 28 q 447 250 447 156 l 449 357 q 221 219 333 219 q 76 295 139 219 q 4 524 13 371 q 70 742 4 635 q 242 899 136 850 q 336 921 288 921 q 463 885 397 921 q 486 960 468 947 q 526 968 500 968 l 553 967 q 607 965 575 965 q 690 953 665 965 q 715 872 715 942 q 708 708 715 817 q 683 44 692 514 l 683 42 q 676 25 683 33 q 565 0 660 3 l 539 -1 m 322 550 q 369 569 350 550 q 389 617 389 589 q 369 665 389 646 q 322 685 350 685 q 274 665 294 685 q 254 617 254 646 q 274 569 254 589 q 322 550 294 550 z "},"r":{"ha":618,"x_min":38,"x_max":617,"o":"m 67 6 l 58 6 q 44 88 44 8 q 38 869 38 478 q 40 884 38 879 q 51 892 42 889 q 85 896 72 896 q 181 908 163 908 q 213 898 201 908 q 225 785 225 888 q 451 968 358 968 q 499 967 453 968 q 588 844 546 965 q 617 650 617 760 q 611 550 617 601 q 536 497 603 525 q 482 485 507 485 q 461 499 464 485 q 445 585 458 540 q 411 653 432 629 q 383 667 399 667 q 360 658 372 667 q 265 483 283 607 q 254 303 254 417 q 263 71 254 204 q 233 49 260 60 q 175 29 206 38 q 135 19 144 21 q 100 11 114 15 q 67 6 78 6 z "},"s":{"ha":626,"x_min":14,"x_max":610,"o":"m 279 -4 q 206 3 243 -4 q 69 61 111 19 q 15 188 26 103 q 14 222 14 203 q 44 375 14 324 q 68 389 54 389 q 155 296 103 389 q 244 203 207 203 q 276 214 260 203 q 293 242 293 225 q 270 293 293 258 q 167 421 247 328 l 114 483 q 49 664 49 568 q 63 767 49 690 q 179 921 76 843 q 347 976 250 976 q 438 965 390 976 q 589 822 547 931 q 610 713 610 767 q 590 607 610 660 q 564 578 581 583 q 538 575 554 575 l 511 576 q 417 596 440 576 q 382 633 393 615 q 350 660 368 660 q 331 654 342 660 q 286 594 286 633 q 287 572 286 593 q 353 517 288 551 l 382 503 q 514 427 461 468 q 588 306 567 386 q 594 243 594 272 q 547 109 594 172 q 403 15 500 46 q 279 -4 342 -4 z "},"t":{"ha":681,"x_min":10,"x_max":685,"o":"m 271 3 q 180 24 246 3 q 71 215 114 44 q 53 379 53 286 q 89 686 53 511 q 82 685 86 685 q 44 682 64 682 q 10 710 10 682 q 18 781 10 724 q 63 878 32 875 q 122 876 99 878 l 143 876 q 174 878 161 876 q 192 893 186 881 q 206 935 199 906 l 208 942 q 243 969 214 965 q 292 972 261 972 l 339 971 l 404 971 q 418 936 418 969 q 408 878 418 906 q 468 872 419 872 l 576 874 q 589 847 588 874 q 580 785 589 819 q 551 723 571 750 q 503 693 532 696 q 400 690 449 690 l 336 692 q 307 468 307 581 l 308 410 q 367 304 324 304 q 449 361 404 304 q 522 496 493 418 q 556 556 539 544 q 571 560 561 560 q 615 549 588 560 q 669 526 654 536 q 685 504 685 517 q 675 471 683 492 l 674 465 q 450 89 575 200 q 271 3 356 3 z "},"u":{"ha":660,"x_min":26,"x_max":633,"o":"m 496 -67 l 479 -67 q 417 -46 429 -67 q 410 -7 410 -35 q 419 81 410 25 q 236 0 313 0 q 121 57 188 0 q 33 349 54 114 q 26 507 26 424 q 58 908 26 686 q 79 951 60 942 q 151 961 99 961 l 197 961 l 228 963 q 286 946 272 963 q 292 919 292 938 q 272 817 292 886 q 226 476 226 633 q 260 278 226 347 q 297 243 278 243 q 363 321 322 243 q 446 774 404 399 q 499 817 453 803 q 560 826 529 826 q 603 821 574 826 q 633 778 633 815 q 614 286 614 510 l 615 185 l 615 72 q 611 -18 615 14 q 585 -58 607 -50 q 522 -65 564 -65 l 508 -65 l 496 -67 z "},"v":{"ha":803,"x_min":-4,"x_max":814,"o":"m 356 0 l 332 0 q 276 6 299 0 q 243 49 253 13 q 147 338 193 204 q 35 685 93 497 q 17 736 26 713 q -4 819 -4 786 q 29 883 -4 853 q 156 944 63 913 q 218 958 194 958 q 255 943 239 958 q 282 871 271 928 l 283 861 q 400 332 343 624 q 537 653 485 529 q 619 844 589 776 q 666 939 649 911 q 697 968 683 967 q 728 958 710 968 l 742 951 q 797 924 782 933 q 814 903 813 914 q 806 874 814 892 l 796 851 q 582 296 692 561 l 493 75 q 455 13 474 24 q 406 1 436 1 q 356 0 376 1 z "},"w":{"ha":974,"x_min":19,"x_max":972,"o":"m 701 0 l 592 1 q 540 58 572 1 q 447 256 508 115 l 421 211 q 311 51 361 101 q 150 1 261 1 q 85 31 100 1 q 69 154 71 60 q 21 911 33 828 l 19 924 q 57 953 21 940 q 178 969 110 969 q 267 943 258 969 l 293 792 q 349 360 339 506 q 499 533 442 533 q 604 356 557 533 q 650 538 631 454 q 711 769 682 674 q 776 917 740 865 q 869 968 813 968 l 892 968 q 933 964 911 968 q 965 936 954 960 q 972 903 972 924 q 967 858 972 883 q 794 22 913 601 q 765 3 793 6 q 701 0 744 0 z "},"x":{"ha":793,"x_min":0,"x_max":800,"o":"m 165 1 l 157 1 q 104 22 133 1 q 42 94 42 64 q 67 153 42 119 q 143 265 101 206 q 256 438 228 383 q 160 549 207 499 q 57 670 114 600 q 0 776 0 740 q 15 817 0 799 q 135 931 96 931 q 201 889 163 931 q 404 614 251 836 l 522 772 q 643 929 606 885 q 696 968 676 968 q 710 964 699 968 q 747 918 721 960 q 758 901 751 910 l 776 875 q 800 831 800 843 q 771 781 800 817 q 764 771 768 775 q 519 432 600 550 q 622 290 581 346 q 707 147 707 179 q 691 117 707 133 q 614 69 675 100 l 561 40 q 524 25 538 25 q 514 26 522 25 q 483 57 506 26 q 375 221 451 99 q 239 56 285 107 q 165 1 193 6 z "},"y":{"ha":692,"x_min":18,"x_max":667,"o":"m 304 -19 q 240 -15 297 -19 q 115 70 183 -11 q 43 285 46 151 l 43 306 q 55 356 43 338 q 138 374 67 374 q 200 365 183 374 q 217 325 217 356 l 217 321 q 247 239 217 265 q 336 207 283 207 q 382 217 364 207 q 476 332 454 250 q 489 438 489 379 q 482 531 489 481 q 243 410 340 410 q 155 431 219 410 q 49 589 90 451 q 18 796 18 688 q 22 881 18 838 q 44 931 25 915 q 147 946 63 946 q 185 943 169 946 q 205 928 201 940 q 208 897 208 917 l 208 885 q 254 700 208 767 q 319 658 282 658 q 381 680 338 658 q 493 881 424 701 q 494 889 494 883 q 500 915 496 900 q 519 939 504 929 q 561 949 533 949 l 597 947 q 642 942 629 947 q 660 915 656 936 q 664 832 664 885 l 667 664 q 653 367 667 493 q 603 172 640 240 q 506 60 565 104 q 304 -19 403 -19 z "},"z":{"ha":750,"x_min":6,"x_max":742,"o":"m 67 -33 q 37 -22 49 -33 q 24 25 25 -11 l 18 68 q 6 189 6 163 q 13 240 6 219 q 44 286 21 261 q 426 749 236 517 q 181 736 221 736 q 105 741 144 736 q 58 789 65 746 q 56 822 56 803 q 67 935 56 864 l 68 942 q 83 1004 72 992 q 104 1010 90 1010 q 133 1006 115 1010 l 204 993 q 717 889 457 947 q 742 858 742 882 q 740 842 742 857 q 717 792 739 826 q 664 725 694 757 q 376 435 411 472 q 354 404 354 411 q 358 401 354 401 l 363 403 q 532 439 467 424 q 646 460 607 460 q 688 447 668 460 q 714 324 707 435 q 722 261 721 265 q 725 231 725 240 q 720 217 725 221 q 703 207 715 213 l 700 207 q 315 46 453 101 q 67 -33 115 -33 z "},"{":{"ha":536,"x_min":42,"x_max":494,"o":"m 368 0 l 343 1 q 242 69 299 1 q 117 346 185 138 q 75 410 100 389 q 51 440 61 424 q 42 482 42 457 l 42 489 q 82 551 44 519 q 153 649 129 592 q 269 844 199 767 q 403 950 340 922 q 450 961 431 961 q 486 943 475 961 q 494 917 494 929 q 485 890 494 906 q 438 840 475 874 q 207 558 319 731 q 168 472 168 499 q 185 419 168 458 q 214 350 197 394 q 376 110 300 126 q 400 107 389 107 q 429 111 417 107 q 451 115 442 115 q 463 115 456 115 q 478 99 469 114 q 486 69 486 83 q 451 20 486 40 q 368 0 415 0 z "},"|":{"ha":233,"x_min":28,"x_max":200,"o":"m 121 0 l 107 0 q 92 2 100 0 q 82 17 83 4 q 55 514 69 268 q 32 938 40 760 l 28 1032 q 93 1058 28 1046 q 178 1079 174 1076 q 188 1082 183 1082 q 194 1082 189 1082 q 200 1011 200 1082 l 194 863 q 183 507 183 558 q 175 249 178 360 q 167 19 172 139 q 157 5 167 10 q 121 0 147 0 z "},"}":{"ha":536,"x_min":42,"x_max":494,"o":"m 83 0 q 49 18 60 0 q 42 44 42 32 q 51 73 42 57 q 99 123 61 89 q 194 222 136 157 q 329 404 253 288 q 363 461 354 442 q 368 488 368 475 q 350 542 368 507 l 321 611 q 160 851 233 839 q 133 854 146 854 q 106 851 118 854 q 85 847 94 847 q 73 847 81 847 q 58 864 65 847 q 50 893 50 881 q 82 940 50 922 q 168 961 121 961 l 193 960 q 294 892 238 960 q 419 617 351 824 q 460 553 436 572 q 485 522 475 539 q 494 474 494 504 q 482 439 493 453 q 453 410 471 425 q 417 373 436 396 q 383 313 399 350 q 266 118 338 196 q 132 13 194 40 q 83 0 104 0 z "},"~":{"ha":604,"x_min":19,"x_max":589,"o":"m 390 297 q 323 328 353 299 q 267 393 293 357 q 224 445 244 424 q 181 467 203 467 q 152 435 161 467 q 139 371 143 403 q 126 324 132 328 q 78 303 104 303 l 54 307 q 19 392 19 313 q 40 498 19 436 q 143 592 61 560 q 172 596 158 596 q 319 483 236 596 q 363 432 343 451 q 390 418 378 418 q 433 453 408 418 q 463 499 449 475 l 482 531 q 531 556 499 556 q 551 552 536 556 q 581 528 567 549 q 589 497 589 513 q 561 431 589 474 q 551 415 557 422 q 390 297 489 300 z "}," ":{"ha":386,"x_min":0,"x_max":0,"o":""},"¡":{"ha":369,"x_min":25,"x_max":353,"o":"m 150 0 l 147 0 q 82 57 94 0 q 71 214 71 108 l 71 324 l 64 606 l 64 624 q 67 640 64 633 q 94 646 69 646 q 136 643 110 646 l 238 636 q 297 629 278 636 q 315 601 315 622 q 299 485 315 585 l 292 443 q 250 142 269 310 l 249 132 q 229 48 247 92 q 150 0 211 4 m 204 690 q 94 722 156 690 q 25 843 33 753 q 113 963 35 938 q 175 974 144 974 q 284 942 222 974 q 353 813 346 911 q 204 690 331 690 z "},"¢":{"ha":582,"x_min":14,"x_max":568,"o":"m 385 58 l 349 58 q 326 71 328 58 l 321 175 q 289 172 306 172 q 74 286 146 178 q 14 489 14 375 q 22 592 14 510 q 146 776 31 674 q 278 836 203 822 q 276 843 278 840 l 272 922 q 341 947 272 935 q 424 964 410 960 l 433 965 q 439 965 436 965 q 443 949 442 964 q 444 901 444 935 l 440 807 q 528 733 481 786 q 568 639 568 688 q 545 620 568 625 q 490 613 522 615 l 454 611 q 433 619 439 611 q 429 511 431 571 l 428 489 q 424 376 426 428 q 442 393 436 386 q 458 400 449 400 q 535 392 517 400 q 554 372 554 385 l 554 369 q 511 284 547 329 q 418 207 475 239 l 413 74 q 385 58 410 58 m 310 353 q 300 488 304 419 l 289 638 q 239 542 258 607 q 232 485 232 511 q 248 411 232 451 q 310 353 264 371 z "},"£":{"ha":624,"x_min":7,"x_max":613,"o":"m 517 79 l 438 79 l 393 81 q 360 79 375 81 l 206 79 q 126 83 150 79 q 98 97 103 88 q 93 117 93 106 l 93 231 l 92 333 q 90 461 92 410 l 28 460 q 10 463 13 460 q 7 475 7 467 l 10 526 q 12 550 11 543 q 17 558 13 557 q 29 560 21 560 q 90 558 32 558 q 176 868 99 800 q 303 914 231 914 q 371 906 335 914 q 517 819 461 885 q 574 676 574 753 l 574 672 q 535 646 574 646 q 486 651 515 646 q 471 660 476 653 q 461 686 465 667 q 399 783 443 756 q 347 800 372 800 q 301 788 331 800 q 264 709 272 775 q 256 578 256 643 l 256 557 q 388 551 368 557 q 396 540 396 547 l 394 531 q 391 485 393 497 q 378 474 389 474 l 257 467 l 264 297 q 269 260 264 271 q 371 233 278 236 q 501 235 451 233 l 550 236 q 590 233 576 236 q 613 201 613 228 q 608 122 613 147 q 588 89 604 96 q 517 79 557 81 z "},"¥":{"ha":710,"x_min":42,"x_max":668,"o":"m 251 79 q 235 83 239 79 q 231 106 231 88 l 235 222 q 238 276 238 250 q 201 278 215 278 q 179 280 188 279 q 167 282 171 281 q 164 285 164 283 q 164 288 164 286 l 164 290 q 168 335 164 318 q 179 344 169 344 l 242 347 q 243 388 242 368 l 181 386 q 166 389 168 386 q 164 400 164 392 l 165 421 q 170 466 165 464 q 189 468 175 468 l 243 467 l 71 744 q 51 777 61 761 q 42 800 42 793 q 58 821 42 808 l 147 885 q 161 890 156 890 q 176 881 169 890 l 340 636 q 351 646 349 642 q 354 651 353 650 l 514 894 q 515 897 514 896 q 517 899 515 897 q 539 914 528 914 q 560 901 549 914 l 650 793 l 667 772 l 668 765 q 547 574 668 754 l 519 531 l 474 464 q 517 453 517 464 q 515 451 515 453 q 513 407 515 417 q 500 397 510 397 l 450 394 q 447 354 450 375 l 499 356 q 514 353 511 356 q 517 344 517 350 q 514 321 517 333 q 509 276 514 278 q 492 274 504 274 l 440 275 l 440 268 q 431 115 431 149 q 430 101 431 106 q 415 93 429 96 q 414 92 415 92 q 358 85 388 85 l 251 79 z "},"§":{"ha":308,"x_min":22,"x_max":285,"o":"m 124 188 q 43 213 68 188 q 22 275 22 232 q 25 301 22 285 q 43 336 28 336 q 58 328 49 336 q 75 301 67 317 q 110 265 94 265 q 122 269 115 265 q 128 279 128 272 q 81 347 128 299 l 60 371 q 35 440 35 404 q 44 490 35 456 q 104 549 54 524 q 72 626 72 581 q 77 665 72 636 q 121 722 82 693 q 185 743 147 743 q 276 686 253 743 q 285 644 285 665 q 276 604 285 625 q 267 593 274 594 q 247 592 261 592 q 238 593 243 593 q 199 614 211 593 q 185 624 192 624 l 178 622 q 163 601 163 614 q 188 569 163 583 l 197 565 q 248 536 228 551 q 276 490 268 521 q 279 468 279 478 q 250 405 279 432 q 174 374 221 378 q 215 347 199 363 q 240 282 240 325 q 203 211 240 235 q 124 188 167 188 z "},"©":{"ha":646,"x_min":22,"x_max":624,"o":"m 329 263 q 254 322 279 265 q 233 424 233 368 q 236 480 233 438 q 279 576 239 522 q 340 608 306 608 q 383 589 361 608 q 411 554 397 578 q 425 507 425 531 q 418 494 425 496 q 385 490 403 490 q 378 496 381 490 q 354 519 369 519 q 337 516 350 519 q 311 454 324 513 q 308 424 308 438 q 324 368 308 389 q 346 353 333 353 q 375 368 360 353 q 382 377 379 374 q 388 381 385 381 q 421 368 421 381 l 421 365 q 391 299 417 332 q 329 263 365 267 m 282 17 q 94 124 185 17 q 22 369 22 240 q 31 485 22 394 q 124 697 40 576 q 322 843 208 817 q 363 847 343 847 q 546 749 456 847 q 624 496 624 629 q 615 380 624 472 q 520 167 606 288 q 319 21 435 46 q 282 17 300 17 m 297 175 q 441 246 365 175 q 524 489 517 317 q 446 658 510 615 q 360 686 406 686 q 282 669 333 686 q 178 568 231 651 q 132 383 132 493 l 133 353 q 297 175 164 175 z "},"«":{"ha":449,"x_min":11,"x_max":432,"o":"m 189 279 q 185 279 188 279 q 178 285 183 279 q 92 358 125 329 q 43 403 60 386 q 11 436 11 429 q 43 471 11 442 l 178 586 q 181 590 179 588 q 189 593 183 593 q 222 569 194 593 l 232 563 q 244 550 243 556 l 244 549 q 101 436 244 543 l 233 333 q 244 319 244 326 q 232 308 243 317 l 207 290 q 189 279 193 279 m 376 279 q 373 279 375 279 q 365 285 371 279 q 281 358 313 329 q 199 436 199 426 q 206 447 199 439 q 365 586 217 461 q 374 593 372 593 l 375 593 q 410 569 382 593 q 432 551 432 553 q 289 436 432 543 q 432 321 432 326 q 418 308 431 317 q 394 289 408 299 q 376 279 381 279 z "},"­":{"ha":0,"x_min":0,"x_max":0,"o":""},"®":{"ha":336,"x_min":21,"x_max":315,"o":"m 146 671 l 122 671 q 117 676 117 671 l 122 750 l 129 806 q 157 819 131 815 l 165 819 q 213 801 196 819 q 224 772 224 788 q 217 749 224 765 q 164 729 211 733 l 179 717 q 211 686 211 690 l 211 685 q 189 672 197 672 q 165 689 181 672 l 151 701 l 153 690 q 146 671 153 671 m 169 767 q 181 776 181 767 q 169 788 181 788 q 160 776 160 788 q 169 767 160 767 m 150 542 q 56 594 103 542 q 21 718 21 656 q 40 820 21 753 q 132 932 60 888 q 185 949 158 949 q 276 899 231 949 q 315 772 315 836 q 295 669 315 738 q 201 557 275 601 q 150 542 176 542 m 154 619 q 225 654 188 619 q 265 772 263 689 q 186 869 253 869 q 115 835 149 869 q 75 715 75 794 l 75 706 q 154 619 90 619 z "},"°":{"ha":196,"x_min":17,"x_max":179,"o":"m 89 685 q 36 714 63 685 q 17 782 17 747 q 28 839 17 801 q 78 900 39 876 q 107 910 93 910 q 157 882 132 910 q 179 810 179 847 q 117 693 179 732 q 89 685 103 685 m 96 764 q 115 773 104 764 q 126 806 125 782 q 104 832 124 832 q 84 822 94 832 q 74 788 74 811 q 96 764 79 764 z "},"»":{"ha":449,"x_min":17,"x_max":438,"o":"m 261 279 l 260 279 q 226 301 254 279 l 217 308 q 204 321 206 317 l 204 322 q 214 333 204 326 l 347 436 l 214 538 q 204 553 204 544 q 217 563 206 556 l 226 569 q 253 590 249 588 q 263 593 257 593 q 268 589 264 593 q 356 514 281 576 q 438 436 438 446 q 407 403 438 431 l 271 285 q 261 279 265 279 m 75 279 l 74 279 q 39 301 67 279 l 29 308 q 17 321 18 317 l 17 322 q 160 436 17 326 q 17 549 17 543 l 17 553 q 29 563 18 556 l 39 569 q 72 593 67 593 q 81 589 76 593 q 168 514 93 576 q 250 436 250 446 q 219 403 250 431 l 83 285 q 75 279 78 279 z "},"¿":{"ha":660,"x_min":11,"x_max":618,"o":"m 325 0 q 38 153 126 0 q 11 261 11 200 q 28 372 11 297 q 160 585 44 446 q 308 667 232 667 q 363 635 347 667 q 368 610 368 625 q 318 488 368 567 q 301 463 311 475 q 247 325 247 389 q 299 239 247 254 q 321 236 310 236 q 378 260 347 236 q 410 351 408 283 q 439 410 411 388 q 503 433 467 433 q 530 432 507 433 q 592 388 553 431 q 618 290 618 353 q 610 202 618 267 q 524 60 601 138 q 374 3 469 14 q 325 0 350 0 m 324 710 q 214 741 275 710 q 144 863 153 772 q 232 982 153 957 q 294 993 264 993 q 403 962 342 993 q 471 832 465 931 q 324 710 450 710 z "},"À":{"ha":656,"x_min":0,"x_max":650,"o":"m 443 0 q 379 3 388 0 q 349 88 354 11 q 340 396 340 181 q 299 400 317 400 q 258 388 271 400 q 240 326 246 375 q 198 119 224 225 q 146 6 172 14 q 124 1 136 1 l 92 1 q 36 6 65 1 q 0 32 7 10 q 121 657 51 350 l 171 890 q 228 946 181 928 q 358 967 282 967 q 442 959 401 967 q 489 935 482 951 q 607 333 569 631 q 650 57 626 197 q 611 21 650 33 q 443 0 543 0 m 314 689 q 353 706 336 689 q 369 746 369 722 q 353 785 369 768 q 314 801 336 801 q 274 785 290 801 q 257 746 257 768 q 274 706 257 722 q 314 689 290 689 m 361 1046 l 357 1046 q 335 1055 349 1046 q 294 1092 321 1064 q 226 1175 268 1121 q 221 1190 221 1182 q 222 1202 221 1193 q 294 1250 222 1211 q 310 1259 303 1254 q 325 1264 318 1264 l 335 1261 q 389 1149 347 1256 q 407 1085 407 1103 q 389 1060 407 1067 l 383 1056 q 361 1046 371 1047 z "},"Á":{"ha":656,"x_min":0,"x_max":650,"o":"m 443 0 q 379 3 388 0 q 349 88 354 11 q 340 396 340 181 q 299 400 317 400 q 258 388 271 400 q 240 326 246 375 q 198 119 224 225 q 146 6 172 14 q 124 1 136 1 l 92 1 q 36 6 65 1 q 0 32 7 10 q 121 657 51 350 l 171 890 q 228 946 181 928 q 358 967 282 967 q 442 959 401 967 q 489 935 482 951 q 607 333 569 631 q 650 57 626 197 q 611 21 650 33 q 443 0 543 0 m 314 689 q 353 706 336 689 q 369 746 369 722 q 353 785 369 768 q 314 801 336 801 q 274 785 290 801 q 257 746 257 768 q 274 706 257 722 q 314 689 290 689 m 326 1046 q 300 1056 314 1046 l 299 1056 l 293 1060 q 275 1085 275 1067 l 278 1101 q 335 1249 281 1125 q 357 1264 343 1264 q 372 1259 364 1264 q 389 1250 381 1254 q 450 1214 421 1232 q 463 1190 463 1206 q 456 1175 463 1182 q 388 1092 414 1121 q 348 1055 361 1064 q 326 1046 335 1046 z "},"Â":{"ha":656,"x_min":0,"x_max":650,"o":"m 443 0 q 379 3 388 0 q 349 88 354 11 q 340 396 340 181 q 299 400 317 400 q 258 388 271 400 q 240 326 246 375 q 198 119 224 225 q 146 6 172 14 q 124 1 136 1 l 92 1 q 36 6 65 1 q 0 32 7 10 q 121 657 51 350 l 171 890 q 228 946 181 928 q 358 967 282 967 q 442 959 401 967 q 489 935 482 951 q 607 333 569 631 q 650 57 626 197 q 611 21 650 33 q 443 0 543 0 m 314 689 q 353 706 336 689 q 369 746 369 722 q 353 785 369 768 q 314 801 336 801 q 274 785 290 801 q 257 746 257 768 q 274 706 257 722 q 314 689 290 689 m 440 1038 l 439 1038 q 325 1181 432 1038 q 208 1038 218 1038 q 197 1050 206 1039 q 179 1074 186 1067 q 168 1094 168 1088 l 168 1096 q 170 1100 168 1097 q 247 1189 172 1103 q 315 1264 297 1249 l 325 1271 q 335 1264 328 1271 q 360 1240 343 1257 l 483 1096 q 471 1074 483 1092 q 453 1050 464 1067 q 440 1038 444 1039 z "},"Ã":{"ha":656,"x_min":0,"x_max":650,"o":"m 443 0 q 379 3 388 0 q 349 88 354 11 q 340 396 340 181 q 299 400 317 400 q 258 388 271 400 q 240 326 246 375 q 198 119 224 225 q 146 6 172 14 q 124 1 136 1 l 92 1 q 36 6 65 1 q 0 32 7 10 q 121 657 51 350 l 171 890 q 228 946 181 928 q 358 967 282 967 q 442 959 401 967 q 489 935 482 951 q 607 333 569 631 q 650 57 626 197 q 611 21 650 33 q 443 0 543 0 m 314 689 q 353 706 336 689 q 369 746 369 722 q 353 785 369 768 q 314 801 336 801 q 274 785 290 801 q 257 746 257 768 q 274 706 257 722 q 314 689 290 689 m 367 1040 q 325 1058 343 1040 q 292 1097 307 1076 q 263 1131 276 1118 q 235 1144 250 1144 q 211 1085 219 1142 q 204 1056 208 1064 q 175 1043 192 1043 q 159 1045 171 1043 q 142 1065 147 1047 q 138 1100 138 1083 q 214 1222 138 1190 q 231 1225 222 1225 q 322 1154 272 1225 q 367 1114 354 1114 l 372 1115 q 392 1135 382 1121 q 410 1162 403 1149 q 424 1183 418 1175 q 435 1195 429 1192 q 450 1199 442 1199 q 465 1197 456 1199 q 482 1183 475 1194 q 489 1161 489 1172 q 467 1113 489 1146 q 367 1040 426 1043 z "},"Ä":{"ha":656,"x_min":0,"x_max":650,"o":"m 443 0 q 379 3 388 0 q 349 88 354 11 q 340 396 340 181 q 299 400 317 400 q 258 388 271 400 q 240 326 246 375 q 198 119 224 225 q 146 6 172 14 q 124 1 136 1 l 92 1 q 36 6 65 1 q 0 32 7 10 q 121 657 51 350 l 171 890 q 228 946 181 928 q 358 967 282 967 q 442 959 401 967 q 489 935 482 951 q 607 333 569 631 q 650 57 626 197 q 611 21 650 33 q 443 0 543 0 m 314 689 q 353 706 336 689 q 369 746 369 722 q 353 785 369 768 q 314 801 336 801 q 274 785 290 801 q 257 746 257 768 q 274 706 257 722 q 314 689 290 689 m 188 1092 q 140 1106 167 1092 q 108 1163 113 1119 q 175 1217 118 1217 q 223 1203 196 1217 q 254 1149 250 1189 q 188 1092 249 1092 m 451 1092 q 403 1106 431 1092 q 372 1163 375 1119 q 439 1217 382 1217 q 487 1203 460 1217 q 518 1149 514 1189 q 451 1092 513 1092 z "},"Å":{"ha":656,"x_min":0,"x_max":650,"o":"m 443 0 q 379 3 388 0 q 349 88 354 11 q 340 396 340 181 q 299 400 317 400 q 258 388 271 400 q 240 326 246 375 q 198 119 224 225 q 146 6 172 14 q 124 1 136 1 l 92 1 q 36 6 65 1 q 0 32 7 10 q 121 657 51 350 l 171 890 q 228 946 181 928 q 358 967 282 967 q 442 959 401 967 q 489 935 482 951 q 607 333 569 631 q 650 57 626 197 q 611 21 650 33 q 443 0 543 0 m 314 689 q 353 706 336 689 q 369 746 369 722 q 353 785 369 768 q 314 801 336 801 q 274 785 290 801 q 257 746 257 768 q 274 706 257 722 q 314 689 290 689 m 310 1019 q 257 1049 283 1019 q 238 1117 238 1082 q 300 1235 238 1196 q 328 1243 314 1243 q 379 1217 353 1243 q 400 1146 400 1182 q 338 1028 400 1064 q 310 1019 324 1019 m 317 1099 q 337 1108 326 1099 q 347 1140 347 1117 q 325 1167 344 1167 q 306 1156 315 1167 q 296 1126 296 1146 l 296 1122 q 317 1099 299 1099 z "},"Æ":{"ha":931,"x_min":0,"x_max":910,"o":"m 474 0 q 379 3 385 0 q 349 88 354 11 q 340 396 340 181 q 299 400 317 400 q 258 388 271 400 q 240 326 246 375 q 198 119 224 225 q 146 6 172 14 q 124 1 136 1 l 92 1 q 36 6 65 1 q 0 32 7 10 q 121 657 51 350 l 171 890 q 242 951 182 933 q 350 967 293 967 q 397 966 360 967 q 471 950 435 965 q 642 965 542 961 q 764 969 707 969 q 844 967 792 969 q 904 953 896 965 q 910 888 910 936 q 864 786 910 789 q 701 783 736 786 q 657 767 667 781 q 646 721 647 753 l 643 681 l 642 622 q 643 593 642 611 q 678 575 644 575 q 715 578 692 575 q 826 586 756 583 q 869 540 853 583 q 885 451 885 497 l 885 421 q 783 360 885 363 l 740 358 l 650 361 q 614 283 624 358 l 625 211 q 874 224 744 215 q 900 194 892 224 q 908 122 908 164 q 899 50 908 82 q 871 15 890 18 q 668 6 768 6 l 643 6 q 474 0 558 4 m 314 689 q 353 706 336 689 q 369 746 369 722 q 353 785 369 768 q 314 801 336 801 q 274 785 290 801 q 257 746 257 768 q 274 706 257 722 q 314 689 290 689 z "},"Ç":{"ha":578,"x_min":15,"x_max":569,"o":"m 263 -168 q 160 -126 203 -168 q 150 -104 150 -117 q 182 -67 150 -76 l 185 -67 q 211 -75 188 -67 q 261 -90 243 -90 q 279 -67 279 -90 q 264 -14 279 -56 l 256 4 q 64 196 126 35 q 15 471 15 322 q 26 636 15 514 q 147 904 36 758 q 288 996 207 978 q 319 999 303 999 q 529 840 436 999 q 569 700 569 772 q 547 669 569 676 q 492 660 524 663 l 457 656 q 442 660 449 656 q 433 674 435 665 q 360 743 406 743 q 313 731 349 743 q 240 553 276 719 q 233 467 233 507 q 251 352 233 414 q 317 267 269 290 q 344 260 331 260 q 425 306 382 260 q 442 327 438 319 q 449 338 446 335 q 460 342 453 342 q 537 330 518 342 q 556 301 556 318 l 556 296 q 480 117 544 207 q 321 4 415 28 l 328 -15 q 350 -96 350 -68 q 329 -143 350 -124 q 263 -168 299 -168 z "},"È":{"ha":564,"x_min":24,"x_max":544,"o":"m 107 1 l 88 1 q 36 12 49 1 q 24 44 24 22 q 36 307 24 72 q 71 901 54 675 q 89 940 72 925 q 129 958 106 956 q 408 968 261 968 q 539 954 529 968 q 544 889 544 932 q 535 822 544 854 q 497 788 525 789 q 443 786 468 786 l 399 786 q 330 783 358 786 q 291 767 301 781 q 281 722 281 754 l 278 682 q 275 628 275 650 q 276 597 275 614 q 294 578 278 581 l 311 576 q 350 579 326 576 q 460 588 389 585 q 503 540 486 585 q 519 446 519 494 q 494 379 518 396 q 418 361 461 363 l 374 360 l 283 363 q 261 339 269 361 q 246 247 246 303 q 257 213 246 214 q 508 225 378 217 q 534 194 525 225 q 543 124 543 164 q 533 51 543 83 q 504 17 524 19 q 303 7 403 7 l 278 7 q 107 1 193 6 m 389 1046 l 385 1046 q 324 1093 365 1046 q 249 1192 249 1175 q 261 1214 249 1204 q 322 1250 290 1232 q 338 1259 331 1254 q 353 1264 346 1264 q 366 1260 357 1264 q 417 1149 375 1257 q 435 1083 435 1103 q 418 1060 435 1068 l 413 1056 l 411 1056 q 389 1046 400 1047 z "},"É":{"ha":564,"x_min":24,"x_max":544,"o":"m 107 1 l 88 1 q 36 12 49 1 q 24 44 24 22 q 36 307 24 72 q 71 901 54 675 q 89 940 72 925 q 129 958 106 956 q 408 968 261 968 q 539 954 529 968 q 544 889 544 932 q 535 822 544 854 q 497 788 525 789 q 443 786 468 786 l 399 786 q 330 783 358 786 q 291 767 301 781 q 281 722 281 754 l 278 682 q 275 628 275 650 q 276 597 275 614 q 294 578 278 581 l 311 576 q 350 579 326 576 q 460 588 389 585 q 503 540 486 585 q 519 446 519 494 q 494 379 518 396 q 418 361 461 363 l 374 360 l 283 363 q 261 339 269 361 q 246 247 246 303 q 257 213 246 214 q 508 225 378 217 q 534 194 525 225 q 543 124 543 164 q 533 51 543 83 q 504 17 524 19 q 303 7 403 7 l 278 7 q 107 1 193 6 m 293 1046 q 267 1056 281 1046 l 265 1056 l 260 1060 q 243 1083 243 1067 l 246 1100 q 301 1249 250 1131 q 324 1264 310 1264 q 339 1259 331 1264 q 356 1250 347 1254 q 417 1214 388 1232 q 429 1190 429 1206 q 424 1175 429 1182 q 355 1092 381 1121 q 315 1055 329 1064 q 293 1046 301 1046 z "},"Ê":{"ha":564,"x_min":24,"x_max":544,"o":"m 107 1 l 88 1 q 36 12 49 1 q 24 44 24 22 q 36 307 24 72 q 71 901 54 675 q 89 940 72 925 q 129 958 106 956 q 408 968 261 968 q 539 954 529 968 q 544 889 544 932 q 535 822 544 854 q 497 788 525 789 q 443 786 468 786 l 399 786 q 330 783 358 786 q 291 767 301 781 q 281 722 281 754 l 278 682 q 275 628 275 650 q 276 597 275 614 q 294 578 278 581 l 311 576 q 350 579 326 576 q 460 588 389 585 q 503 540 486 585 q 519 446 519 494 q 494 379 518 396 q 418 361 461 363 l 374 360 l 283 363 q 261 339 269 361 q 246 247 246 303 q 257 213 246 214 q 508 225 378 217 q 534 194 525 225 q 543 124 543 164 q 533 51 543 83 q 504 17 524 19 q 303 7 403 7 l 278 7 q 107 1 193 6 m 436 1038 l 435 1038 q 321 1181 431 1038 q 208 1038 214 1038 q 194 1050 203 1038 l 188 1060 q 164 1093 164 1089 q 168 1101 164 1097 q 243 1189 181 1114 q 311 1264 290 1246 l 321 1271 q 399 1190 329 1271 q 474 1101 468 1108 q 479 1093 479 1094 q 476 1088 479 1092 q 468 1076 474 1083 q 457 1061 463 1068 q 449 1050 451 1054 q 436 1038 440 1039 z "},"Ë":{"ha":564,"x_min":24,"x_max":544,"o":"m 107 1 l 88 1 q 36 12 49 1 q 24 44 24 22 q 36 307 24 72 q 71 901 54 675 q 89 940 72 925 q 129 958 106 956 q 408 968 261 968 q 539 954 529 968 q 544 889 544 932 q 535 822 544 854 q 497 788 525 789 q 443 786 468 786 l 399 786 q 330 783 358 786 q 291 767 301 781 q 281 722 281 754 l 278 682 q 275 628 275 650 q 276 597 275 614 q 294 578 278 581 l 311 576 q 350 579 326 576 q 460 588 389 585 q 503 540 486 585 q 519 446 519 494 q 494 379 518 396 q 418 361 461 363 l 374 360 l 283 363 q 261 339 269 361 q 246 247 246 303 q 257 213 246 214 q 508 225 378 217 q 534 194 525 225 q 543 124 543 164 q 533 51 543 83 q 504 17 524 19 q 303 7 403 7 l 278 7 q 107 1 193 6 m 214 1092 q 166 1106 193 1092 q 136 1163 139 1119 q 201 1217 146 1217 q 249 1203 222 1217 q 281 1149 276 1189 q 214 1092 275 1092 m 478 1092 q 430 1106 457 1092 q 400 1163 403 1119 q 465 1217 410 1217 q 513 1203 486 1217 q 544 1149 540 1189 q 478 1092 539 1092 z "},"Ì":{"ha":303,"x_min":39,"x_max":274,"o":"m 108 0 q 63 7 81 0 q 42 49 46 14 q 39 126 39 75 l 42 901 q 47 947 42 931 q 78 965 51 963 q 135 968 97 968 l 240 968 q 261 963 253 968 q 274 881 274 954 l 267 681 q 246 190 257 515 q 229 38 243 75 q 174 1 215 1 q 108 0 133 1 m 204 1046 l 200 1046 q 139 1093 181 1046 q 64 1192 64 1175 q 76 1214 64 1204 q 138 1250 106 1232 q 153 1259 146 1254 q 168 1264 161 1264 q 181 1260 172 1264 q 232 1149 190 1257 q 250 1085 250 1103 q 233 1060 250 1068 l 228 1056 l 226 1056 q 204 1046 215 1047 z "},"Í":{"ha":303,"x_min":39,"x_max":275,"o":"m 108 0 q 63 7 81 0 q 42 49 46 14 q 39 126 39 75 l 42 901 q 47 947 42 931 q 78 965 51 963 q 135 968 97 968 l 240 968 q 261 963 253 968 q 274 881 274 954 l 267 681 q 246 190 257 515 q 229 38 243 75 q 174 1 215 1 q 108 0 133 1 m 139 1046 q 113 1056 126 1046 l 111 1056 l 106 1060 q 88 1085 88 1067 l 90 1101 q 147 1249 93 1125 q 169 1264 156 1264 q 185 1259 176 1264 q 201 1250 193 1254 q 261 1214 233 1232 q 275 1190 275 1206 q 268 1175 275 1182 q 139 1046 168 1046 z "},"Î":{"ha":303,"x_min":0,"x_max":314,"o":"m 108 0 q 63 7 81 0 q 42 49 46 14 q 39 126 39 75 l 42 901 q 47 947 42 931 q 78 965 51 963 q 135 968 97 968 l 240 968 q 261 963 253 968 q 274 881 274 954 l 267 681 q 246 190 257 515 q 229 38 243 75 q 174 1 215 1 q 108 0 133 1 m 271 1038 l 269 1038 q 157 1181 264 1038 l 54 1049 q 40 1038 47 1038 q 29 1050 38 1039 l 22 1060 q 0 1094 0 1086 l 0 1096 q 79 1189 0 1099 q 147 1264 129 1249 l 157 1271 q 235 1189 167 1271 l 307 1104 q 314 1094 314 1097 l 313 1088 l 283 1050 q 271 1038 276 1039 z "},"Ï":{"ha":304,"x_min":-14,"x_max":394,"o":"m 108 0 q 64 7 81 0 q 43 49 47 14 q 39 164 39 83 l 40 446 l 43 901 q 48 947 43 931 q 78 965 53 963 q 135 968 97 968 l 240 968 q 265 961 254 968 q 275 896 275 954 q 267 681 275 839 q 246 190 258 515 q 229 38 243 75 q 174 1 215 1 q 108 0 133 1 m 64 1092 q 16 1106 43 1092 q -14 1163 -11 1119 q 53 1217 -4 1217 q 101 1203 74 1217 q 131 1149 128 1189 q 64 1092 125 1092 m 328 1092 q 280 1106 307 1092 q 250 1163 253 1119 q 315 1217 260 1217 q 365 1203 338 1217 q 394 1149 392 1189 q 328 1092 389 1092 z "},"Ñ":{"ha":717,"x_min":13,"x_max":700,"o":"m 511 0 l 492 0 q 461 1 474 0 q 440 13 449 3 q 419 46 432 22 l 404 74 q 276 288 351 171 q 260 181 268 226 l 244 86 q 235 57 242 64 q 211 50 229 50 q 138 63 199 50 q 111 67 126 65 l 97 69 q 26 99 46 75 q 13 164 13 115 q 18 244 13 186 q 57 508 24 303 q 115 901 111 850 q 124 947 119 933 q 147 964 129 961 q 218 967 164 967 l 276 967 q 311 963 300 967 q 326 938 322 960 q 357 804 342 876 q 439 454 379 704 l 460 651 q 481 828 472 775 q 508 893 490 882 q 546 901 521 901 l 571 900 q 673 890 646 897 q 700 860 700 882 l 700 857 q 657 418 681 638 l 619 47 q 615 15 618 25 q 597 3 611 6 q 549 1 582 1 q 511 0 528 1 m 476 1040 q 435 1058 453 1040 q 401 1097 417 1076 q 373 1131 386 1118 q 344 1144 360 1144 q 321 1085 329 1142 q 314 1056 318 1064 q 285 1043 301 1043 q 269 1045 281 1043 q 252 1065 257 1047 q 247 1100 247 1083 q 324 1222 247 1190 q 340 1225 332 1225 q 432 1154 382 1225 q 476 1114 464 1114 l 482 1115 q 502 1135 492 1121 q 520 1162 513 1149 q 533 1183 528 1175 q 545 1195 539 1192 q 560 1199 551 1199 q 575 1197 565 1199 q 592 1183 585 1194 q 599 1164 599 1172 q 576 1113 599 1144 q 476 1040 536 1043 z "},"Ò":{"ha":682,"x_min":8,"x_max":674,"o":"m 214 1 q 113 28 182 1 q 15 208 44 54 q 8 292 8 247 q 71 585 8 419 q 353 935 165 826 q 472 965 417 965 q 665 771 626 965 q 674 672 674 722 q 615 383 674 547 q 408 85 556 219 q 214 1 300 1 m 340 415 q 394 435 372 415 q 417 483 417 456 q 394 531 417 511 q 340 550 372 550 q 288 531 310 550 q 265 483 265 511 q 288 435 265 456 q 340 415 310 415 m 465 1046 l 460 1046 q 399 1093 440 1046 q 324 1192 324 1175 q 336 1214 324 1204 q 397 1250 365 1232 q 414 1259 406 1254 q 428 1264 422 1264 q 450 1249 443 1264 q 510 1083 510 1118 q 493 1060 510 1068 l 488 1056 l 486 1056 q 465 1046 475 1047 z "},"Ó":{"ha":682,"x_min":8,"x_max":674,"o":"m 214 1 q 113 28 182 1 q 15 208 44 54 q 8 292 8 247 q 71 585 8 419 q 353 935 165 826 q 472 965 417 965 q 665 771 626 965 q 674 672 674 722 q 615 383 674 547 q 408 85 556 219 q 214 1 300 1 m 340 415 q 394 435 372 415 q 417 483 417 456 q 394 531 417 511 q 340 550 372 550 q 288 531 310 550 q 265 483 265 511 q 288 435 265 456 q 340 415 310 415 m 392 1046 q 365 1056 379 1046 l 364 1056 l 358 1060 q 340 1085 340 1067 l 343 1101 q 400 1249 346 1125 q 422 1264 408 1264 q 438 1259 429 1264 q 454 1250 446 1254 q 514 1214 486 1232 q 528 1190 528 1206 q 521 1175 528 1182 q 392 1046 421 1046 z "},"Ô":{"ha":682,"x_min":8,"x_max":674,"o":"m 214 1 q 113 28 182 1 q 15 208 44 54 q 8 292 8 247 q 71 585 8 419 q 353 935 165 826 q 472 965 417 965 q 665 771 626 965 q 674 672 674 722 q 615 383 674 547 q 408 85 556 219 q 214 1 300 1 m 340 415 q 394 435 372 415 q 417 483 417 456 q 394 531 417 511 q 340 550 372 550 q 288 531 310 550 q 265 483 265 511 q 288 435 265 456 q 340 415 310 415 m 538 1038 l 536 1038 q 422 1181 529 1038 l 319 1049 q 306 1038 313 1038 q 294 1050 303 1039 l 288 1060 q 265 1094 265 1086 l 265 1096 q 267 1100 265 1097 q 344 1189 269 1103 q 413 1264 394 1249 l 422 1271 q 500 1189 432 1271 l 572 1104 q 579 1094 579 1097 l 579 1093 q 568 1074 579 1089 q 558 1061 563 1068 q 549 1050 553 1054 q 538 1038 542 1039 z "},"Õ":{"ha":682,"x_min":8,"x_max":674,"o":"m 214 1 q 113 28 182 1 q 15 208 44 54 q 8 292 8 247 q 71 585 8 419 q 353 935 165 826 q 472 965 417 965 q 665 771 626 965 q 674 672 674 722 q 615 383 674 547 q 408 85 556 219 q 214 1 300 1 m 340 415 q 394 435 372 415 q 417 483 417 456 q 394 531 417 511 q 340 550 372 550 q 288 531 310 550 q 265 483 265 511 q 288 435 265 456 q 340 415 310 415 m 471 1040 q 428 1058 447 1040 q 395 1097 410 1076 q 367 1131 381 1118 q 339 1144 353 1144 q 314 1085 322 1142 q 307 1056 311 1060 q 279 1043 294 1043 q 263 1045 275 1043 q 246 1065 251 1047 q 240 1099 240 1082 q 253 1163 240 1125 q 317 1222 267 1201 q 333 1225 325 1225 q 426 1154 372 1225 q 469 1114 456 1114 q 496 1135 482 1114 l 515 1164 l 526 1183 q 554 1199 536 1199 q 569 1197 558 1199 q 586 1183 579 1194 q 593 1164 593 1172 q 569 1113 593 1147 q 471 1040 529 1043 z "},"Ö":{"ha":682,"x_min":8,"x_max":674,"o":"m 214 1 q 113 28 182 1 q 15 208 44 54 q 8 292 8 247 q 71 585 8 419 q 353 935 165 826 q 472 965 417 965 q 665 771 626 965 q 674 672 674 722 q 615 383 674 547 q 408 85 556 219 q 214 1 300 1 m 340 415 q 394 435 372 415 q 417 483 417 456 q 394 531 417 511 q 340 550 372 550 q 288 531 310 550 q 265 483 265 511 q 288 435 265 456 q 340 415 310 415 m 315 1092 q 267 1106 294 1092 q 238 1163 240 1119 q 303 1217 247 1217 q 351 1203 324 1217 q 382 1149 378 1189 q 315 1092 376 1092 m 579 1092 q 531 1106 558 1092 q 500 1163 504 1119 q 567 1217 510 1217 q 615 1203 588 1217 q 646 1149 642 1189 q 579 1092 640 1092 z "},"×":{"ha":449,"x_min":18,"x_max":429,"o":"m 333 263 q 324 265 328 263 l 238 354 q 199 321 229 349 q 146 279 153 279 q 72 344 125 279 q 42 379 56 365 q 38 390 38 385 q 86 447 38 407 q 117 476 117 469 l 115 479 q 71 528 90 508 q 18 601 18 582 q 50 649 18 615 q 60 658 56 653 q 94 685 82 685 q 118 672 104 685 q 179 608 139 656 q 214 575 210 575 q 224 582 217 575 l 226 583 q 283 638 261 618 q 326 665 315 665 q 344 653 335 665 l 389 607 q 429 553 429 568 q 421 532 429 544 q 336 450 414 524 q 414 368 393 393 q 422 346 422 356 q 394 310 422 335 l 374 290 q 333 263 346 263 z "},"Ø":{"ha":692,"x_min":8,"x_max":685,"o":"m 161 -51 q 104 -33 140 -51 l 103 -32 q 56 3 56 -17 l 56 8 l 78 65 q 8 274 15 138 l 8 294 q 71 585 8 422 q 353 935 165 826 q 401 954 378 947 l 429 1029 q 444 1035 431 1035 q 535 1015 469 1035 q 649 985 579 1001 l 663 982 q 685 967 685 981 q 638 854 685 947 q 674 672 674 788 q 615 383 674 547 q 408 85 556 219 q 215 1 301 1 l 201 1 l 178 -43 q 161 -51 174 -51 m 347 415 q 400 435 378 415 q 422 483 422 456 q 400 531 422 511 q 347 550 378 550 q 293 531 315 550 q 271 483 271 511 q 293 435 271 456 q 347 415 315 415 z "},"Ù":{"ha":660,"x_min":26,"x_max":633,"o":"m 508 -68 l 479 -68 q 417 -47 429 -68 q 410 -8 410 -36 q 419 78 410 24 q 236 -3 313 -3 q 121 54 188 -3 q 33 346 54 111 q 26 506 26 421 q 58 907 26 685 q 79 949 60 940 q 151 958 99 958 q 195 960 176 958 q 226 961 214 961 q 286 943 272 961 q 292 917 292 935 q 272 814 292 883 q 226 475 226 631 q 260 276 226 346 q 297 242 278 242 q 363 319 322 242 q 446 772 404 397 q 499 815 453 800 q 556 824 528 824 q 603 819 572 824 q 633 776 633 814 q 614 285 614 507 l 615 183 l 615 69 q 611 -21 615 11 q 584 -60 607 -53 q 508 -68 561 -68 m 378 1046 l 374 1046 q 351 1055 365 1046 q 311 1092 338 1064 q 243 1175 285 1121 q 238 1192 238 1183 q 238 1201 238 1194 q 250 1214 239 1207 q 311 1250 279 1232 q 327 1259 319 1254 q 342 1264 335 1264 l 351 1261 q 406 1149 364 1256 q 424 1085 424 1103 q 406 1060 424 1067 l 401 1056 l 400 1056 q 378 1046 388 1047 z "},"Ú":{"ha":660,"x_min":26,"x_max":633,"o":"m 508 -68 l 479 -68 q 417 -47 429 -68 q 410 -8 410 -36 q 419 78 410 24 q 236 -3 313 -3 q 121 54 188 -3 q 33 346 54 111 q 26 506 26 421 q 58 907 26 685 q 79 949 60 940 q 151 958 99 958 q 195 960 176 958 q 226 961 214 961 q 286 943 272 961 q 292 917 292 935 q 272 814 292 883 q 226 475 226 631 q 260 276 226 346 q 297 242 278 242 q 363 319 322 242 q 446 772 404 397 q 499 815 453 800 q 556 824 528 824 q 603 819 572 824 q 633 776 633 814 q 614 285 614 507 l 615 183 l 615 69 q 611 -21 615 11 q 584 -60 607 -53 q 508 -68 561 -68 m 379 1046 q 353 1056 368 1046 l 347 1060 q 329 1085 329 1067 l 332 1101 q 389 1249 335 1125 q 411 1264 397 1264 q 426 1259 418 1264 q 442 1250 433 1254 q 503 1214 475 1232 q 517 1190 517 1206 q 510 1175 517 1182 q 442 1092 468 1121 q 401 1055 415 1064 q 379 1046 388 1046 z "},"Û":{"ha":660,"x_min":26,"x_max":633,"o":"m 508 -68 l 479 -68 q 417 -47 429 -68 q 410 -8 410 -36 q 419 78 410 24 q 236 -3 313 -3 q 121 54 188 -3 q 33 346 54 111 q 26 506 26 421 q 58 907 26 685 q 79 949 60 940 q 151 958 99 958 q 195 960 176 958 q 226 961 214 961 q 286 943 272 961 q 292 917 292 935 q 272 814 292 883 q 226 475 226 631 q 260 276 226 346 q 297 242 278 242 q 363 319 322 242 q 446 772 404 397 q 499 815 453 800 q 556 824 528 824 q 603 819 572 824 q 633 776 633 814 q 614 285 614 507 l 615 183 l 615 69 q 611 -21 615 11 q 584 -60 607 -53 q 508 -68 561 -68 m 528 1038 l 526 1038 q 413 1181 522 1038 q 300 1038 306 1038 q 286 1050 296 1038 l 279 1060 q 256 1093 256 1089 q 260 1101 256 1097 q 335 1189 272 1114 q 403 1264 382 1246 l 413 1271 q 490 1190 421 1271 q 565 1101 560 1108 q 571 1093 571 1094 q 568 1088 571 1092 q 560 1076 565 1083 q 549 1061 554 1068 q 540 1050 543 1054 q 528 1038 532 1039 z "},"Ü":{"ha":660,"x_min":26,"x_max":633,"o":"m 508 -68 l 479 -68 q 417 -47 429 -68 q 410 -8 410 -36 q 419 78 410 24 q 236 -3 313 -3 q 121 54 188 -3 q 33 346 54 111 q 26 506 26 421 q 58 907 26 685 q 79 949 60 940 q 151 958 99 958 q 195 960 176 958 q 226 961 214 961 q 286 943 272 961 q 292 917 292 935 q 272 814 292 883 q 226 475 226 631 q 260 276 226 346 q 297 242 278 242 q 363 319 322 242 q 446 772 404 397 q 499 815 453 800 q 556 824 528 824 q 603 819 572 824 q 633 776 633 814 q 614 285 614 507 l 615 183 l 615 69 q 611 -21 615 11 q 584 -60 607 -53 q 508 -68 561 -68 m 204 1092 q 156 1106 183 1092 q 125 1163 129 1119 q 192 1217 135 1217 q 240 1203 213 1217 q 271 1149 267 1189 q 204 1092 265 1092 m 468 1092 q 420 1106 447 1092 q 389 1163 393 1119 q 456 1217 399 1217 q 503 1203 476 1217 q 535 1149 531 1189 q 468 1092 529 1092 z "},"Ý":{"ha":696,"x_min":-14,"x_max":708,"o":"m 225 -1 q 209 3 214 -1 q 204 24 204 8 q 210 165 204 71 q 222 426 214 296 q 213 458 222 444 l -4 811 q -14 835 -14 826 q -13 841 -14 836 q 6 860 -12 846 q 124 940 114 940 q 142 928 133 940 l 258 754 l 318 663 l 331 646 q 343 660 340 650 q 497 896 350 667 l 531 944 l 533 950 q 558 968 546 968 q 582 953 569 968 l 657 864 q 689 825 681 833 q 708 793 708 801 q 568 574 708 782 l 536 524 l 465 418 q 460 403 460 411 l 444 210 q 435 61 435 74 l 435 42 q 430 19 435 21 q 417 15 425 18 l 415 15 q 351 6 385 7 l 238 0 l 225 -1 m 397 1046 q 371 1056 385 1046 l 369 1056 l 364 1060 q 347 1083 347 1068 l 350 1100 q 406 1249 354 1131 q 428 1264 414 1264 q 443 1259 435 1264 q 460 1250 451 1254 q 521 1214 492 1232 q 533 1190 533 1206 q 528 1175 533 1182 q 459 1092 485 1121 q 419 1055 433 1064 q 397 1046 406 1046 z "},"ß":{"ha":675,"x_min":26,"x_max":669,"o":"m 165 11 l 142 13 q 53 17 72 13 q 30 31 33 21 q 26 71 26 42 q 35 517 26 275 l 38 621 q 74 765 40 692 q 160 886 107 839 q 338 963 257 963 q 406 952 353 963 q 517 865 458 942 q 593 706 576 789 q 601 628 599 681 q 603 607 603 618 q 588 515 603 565 q 519 429 572 464 q 496 394 496 415 l 496 392 q 549 343 496 364 q 625 300 594 322 q 669 194 669 265 q 613 88 669 125 q 492 51 556 51 q 449 56 471 51 q 371 90 394 65 q 339 176 339 121 q 356 269 339 240 q 368 278 361 278 q 418 224 389 278 q 471 171 447 171 q 488 176 479 171 q 497 192 497 182 q 426 296 497 219 l 396 331 q 358 435 358 379 q 366 492 358 449 q 432 581 374 536 q 382 754 429 708 q 354 767 368 767 q 276 675 319 767 q 232 190 232 576 q 228 58 232 92 q 206 17 225 25 q 165 11 192 11 z "},"à":{"ha":643,"x_min":14,"x_max":624,"o":"m 331 1076 l 326 1076 q 304 1085 318 1076 q 264 1123 290 1094 q 196 1206 238 1151 q 190 1222 190 1214 q 191 1233 190 1225 q 264 1281 192 1242 q 280 1290 272 1285 q 294 1294 288 1294 l 304 1292 q 358 1179 317 1286 q 376 1115 376 1133 q 373 1101 376 1106 q 353 1088 369 1096 l 353 1086 q 331 1076 340 1078 m 454 0 q 432 83 439 0 q 244 13 349 13 q 101 56 168 13 q 15 200 35 100 l 14 224 q 108 419 14 344 q 283 482 186 482 q 350 475 315 482 q 357 525 357 499 q 343 605 357 556 q 294 671 329 654 q 283 674 289 674 q 226 599 254 674 q 189 578 222 585 q 76 565 156 572 l 56 564 q 29 671 39 564 l 29 681 q 87 822 29 750 q 235 942 144 893 q 392 983 314 983 q 447 981 400 983 q 543 893 494 978 q 560 849 553 875 q 574 767 567 824 q 607 296 581 696 l 624 58 q 622 47 624 53 q 604 34 619 40 q 553 19 589 28 q 454 0 518 11 m 283 182 q 331 202 311 182 q 350 250 350 222 q 331 297 350 278 q 283 317 311 317 q 235 297 254 317 q 215 250 215 278 q 235 202 215 222 q 283 182 254 182 z "},"á":{"ha":643,"x_min":14,"x_max":624,"o":"m 307 1076 q 281 1086 294 1076 l 274 1090 q 257 1114 257 1099 l 260 1131 q 317 1279 263 1156 q 339 1294 324 1294 q 353 1290 346 1294 q 369 1281 361 1285 q 431 1244 401 1263 q 443 1222 443 1235 q 369 1124 443 1206 q 307 1076 326 1076 m 454 0 q 432 83 439 0 q 244 13 349 13 q 101 56 168 13 q 15 200 35 100 l 14 224 q 108 419 14 344 q 283 482 186 482 q 350 475 315 482 q 357 525 357 499 q 343 605 357 556 q 294 671 329 654 q 283 674 289 674 q 226 599 254 674 q 189 578 222 585 q 76 565 156 572 l 56 564 q 29 671 39 564 l 29 681 q 87 822 29 750 q 235 942 144 893 q 392 983 314 983 q 447 981 400 983 q 543 893 494 978 q 560 849 553 875 q 574 767 567 824 q 607 296 581 696 l 624 58 q 622 47 624 53 q 604 34 619 40 q 553 19 589 28 q 454 0 518 11 m 283 182 q 331 202 311 182 q 350 250 350 222 q 331 297 350 278 q 283 317 311 317 q 235 297 254 317 q 215 250 215 278 q 235 202 215 222 q 283 182 254 182 z "},"â":{"ha":643,"x_min":14,"x_max":624,"o":"m 454 0 q 432 83 439 0 q 244 13 349 13 q 101 56 168 13 q 15 200 35 100 l 14 224 q 108 419 14 344 q 283 482 186 482 q 350 475 315 482 q 357 525 357 499 q 343 605 357 556 q 294 671 329 654 q 283 674 289 674 q 226 599 254 674 q 189 578 222 585 q 76 565 156 572 l 56 564 q 29 671 39 564 l 29 681 q 87 822 29 750 q 235 942 144 893 q 392 983 314 983 q 447 981 400 983 q 543 893 494 978 q 560 849 553 875 q 574 767 567 824 q 607 296 581 696 l 624 58 q 622 47 624 53 q 604 34 619 40 q 553 19 589 28 q 454 0 518 11 m 283 182 q 331 202 311 182 q 350 250 350 222 q 331 297 350 278 q 283 317 311 317 q 235 297 254 317 q 215 250 215 278 q 235 202 215 222 q 283 182 254 182 m 450 1069 l 449 1069 q 335 1211 444 1069 q 222 1069 228 1069 q 208 1081 217 1069 l 201 1090 q 178 1125 178 1118 l 178 1128 l 258 1221 q 325 1296 314 1285 l 336 1301 q 369 1271 342 1301 l 493 1126 l 493 1125 q 469 1090 493 1118 l 463 1081 q 450 1069 454 1069 z "},"ã":{"ha":643,"x_min":14,"x_max":624,"o":"m 454 0 q 432 83 439 0 q 244 13 349 13 q 101 56 168 13 q 15 200 35 100 l 14 224 q 108 419 14 344 q 283 482 186 482 q 350 475 315 482 q 357 525 357 499 q 343 605 357 556 q 294 671 329 654 q 283 674 289 674 q 226 599 254 674 q 189 578 222 585 q 76 565 156 572 l 56 564 q 29 671 39 564 l 29 681 q 87 822 29 750 q 235 942 144 893 q 392 983 314 983 q 447 981 400 983 q 543 893 494 978 q 560 849 553 875 q 574 767 567 824 q 607 296 581 696 l 624 58 q 622 47 624 53 q 604 34 619 40 q 553 19 589 28 q 454 0 518 11 m 283 182 q 331 202 311 182 q 350 250 350 222 q 331 297 350 278 q 283 317 311 317 q 235 297 254 317 q 215 250 215 278 q 235 202 215 222 q 283 182 254 182 m 372 1071 q 330 1089 349 1071 q 297 1128 311 1107 q 269 1162 282 1149 q 243 1175 257 1175 q 224 1156 229 1175 q 217 1115 219 1136 q 210 1086 214 1094 q 181 1074 196 1074 q 165 1076 176 1074 q 148 1096 153 1078 q 143 1131 143 1114 q 156 1195 143 1157 q 219 1253 168 1233 q 236 1256 228 1256 q 328 1185 281 1256 q 372 1144 360 1144 q 398 1165 383 1144 q 429 1214 413 1186 q 458 1231 438 1231 q 472 1228 463 1231 q 488 1214 481 1225 q 494 1194 494 1203 q 478 1153 494 1176 q 471 1143 474 1149 q 372 1071 435 1074 z "},"ä":{"ha":643,"x_min":14,"x_max":624,"o":"m 454 0 q 432 83 439 0 q 244 13 349 13 q 101 56 168 13 q 15 200 35 100 l 14 224 q 108 419 14 344 q 283 482 186 482 q 350 475 315 482 q 357 525 357 499 q 343 605 357 556 q 294 671 329 654 q 283 674 289 674 q 226 599 254 674 q 189 578 222 585 q 76 565 156 572 l 56 564 q 29 671 39 564 l 29 681 q 87 822 29 750 q 235 942 144 893 q 392 983 314 983 q 447 981 400 983 q 543 893 494 978 q 560 849 553 875 q 574 767 567 824 q 607 296 581 696 l 624 58 q 622 47 624 53 q 604 34 619 40 q 553 19 589 28 q 454 0 518 11 m 283 182 q 331 202 311 182 q 350 250 350 222 q 331 297 350 278 q 283 317 311 317 q 235 297 254 317 q 215 250 215 278 q 235 202 215 222 q 283 182 254 182 m 167 1122 q 117 1136 144 1122 q 86 1193 89 1150 q 153 1247 96 1247 q 201 1233 174 1247 q 232 1181 228 1219 q 193 1126 228 1139 q 167 1122 179 1122 m 431 1122 q 381 1136 408 1122 q 350 1193 353 1150 q 417 1247 360 1247 q 465 1233 438 1247 q 494 1181 492 1219 q 457 1126 492 1139 q 431 1122 443 1122 z "},"å":{"ha":643,"x_min":14,"x_max":624,"o":"m 454 0 q 432 83 439 0 q 244 13 349 13 q 101 56 168 13 q 15 200 35 100 l 14 224 q 108 419 14 344 q 283 482 186 482 q 350 475 315 482 q 357 525 357 499 q 343 605 357 556 q 294 671 329 654 q 283 674 289 674 q 226 599 254 674 q 189 578 222 585 q 76 565 156 572 l 56 564 q 29 671 39 564 l 29 681 q 87 822 29 750 q 235 942 144 893 q 392 983 314 983 q 447 981 400 983 q 543 893 494 978 q 560 849 553 875 q 574 767 567 824 q 607 296 581 696 l 624 58 q 622 47 624 53 q 604 34 619 40 q 553 19 589 28 q 454 0 518 11 m 283 182 q 331 202 311 182 q 350 250 350 222 q 331 297 350 278 q 283 317 311 317 q 235 297 254 317 q 215 250 215 278 q 235 202 215 222 q 283 182 254 182 m 342 1050 q 289 1079 315 1050 q 269 1147 269 1113 q 281 1203 269 1167 q 331 1265 292 1240 q 360 1274 344 1274 q 410 1247 385 1274 q 432 1175 432 1211 q 369 1058 432 1094 q 342 1050 356 1050 m 347 1129 q 367 1138 357 1129 q 379 1171 378 1147 q 357 1197 376 1197 q 337 1187 347 1197 q 326 1153 326 1176 q 347 1129 332 1129 z "},"æ":{"ha":1161,"x_min":14,"x_max":1153,"o":"m 454 0 q 432 83 439 0 q 244 13 349 13 q 101 56 168 13 q 15 200 35 100 l 14 224 q 108 419 14 344 q 283 482 186 482 q 350 475 315 482 q 357 525 357 499 q 343 605 357 556 q 294 671 329 654 q 283 674 289 674 q 226 599 254 674 q 189 578 222 585 q 76 565 156 572 l 56 564 q 29 671 39 564 l 29 681 q 87 822 29 750 q 235 942 144 893 q 392 983 314 983 q 447 981 400 983 q 543 893 494 978 q 557 860 551 878 q 567 809 563 842 q 578 717 572 776 q 822 924 689 893 q 899 932 863 932 q 1044 886 982 932 q 1121 736 1121 828 q 1112 653 1121 719 q 918 472 1103 588 q 821 442 874 450 q 750 425 788 436 q 692 344 692 401 q 728 265 692 297 q 776 247 747 247 q 835 261 803 247 q 906 349 875 285 q 951 423 925 388 q 1017 475 978 458 l 1025 476 q 1074 460 1042 476 q 1133 413 1106 443 q 1153 368 1153 390 l 1151 354 q 774 18 1015 18 q 622 68 693 18 l 624 58 q 621 47 624 53 q 602 33 618 40 q 551 19 586 26 q 454 0 517 11 m 868 640 q 917 660 897 640 q 936 707 936 679 q 917 755 936 735 q 868 775 897 775 q 821 755 840 775 q 801 707 801 735 q 821 660 801 679 q 868 640 840 640 m 283 182 q 331 202 311 182 q 350 250 350 222 q 331 297 350 278 q 283 317 311 317 q 235 297 254 317 q 215 250 215 278 q 235 202 215 222 q 283 182 254 182 z "},"ç":{"ha":604,"x_min":13,"x_max":599,"o":"m 254 -172 q 153 -129 197 -172 q 143 -107 143 -119 q 175 -69 143 -81 q 204 -79 182 -69 q 256 -94 246 -94 q 272 -71 272 -94 q 257 -18 272 -51 l 244 13 q 92 131 150 38 q 13 435 13 263 q 55 684 13 561 q 182 883 97 807 q 336 947 250 947 q 374 944 354 947 q 542 815 481 917 q 599 631 599 718 l 599 622 q 551 592 599 592 q 494 597 529 592 q 478 611 482 600 q 465 636 475 622 q 378 694 422 694 q 339 688 369 694 q 274 613 308 681 q 240 449 240 544 l 240 440 q 343 242 253 242 q 417 293 383 242 q 438 307 425 307 l 449 304 q 533 276 513 286 q 553 249 553 267 q 490 121 543 179 q 393 39 436 63 q 311 11 350 15 l 321 -18 q 343 -100 343 -71 q 324 -146 343 -126 q 254 -172 290 -172 z "},"è":{"ha":683,"x_min":11,"x_max":676,"o":"m 300 8 q 169 40 253 8 q 33 221 86 71 q 11 364 11 285 q 51 607 11 471 q 243 867 132 794 q 417 924 332 924 q 497 915 436 924 q 611 832 557 906 q 644 732 644 788 q 622 628 644 697 q 442 464 600 560 q 344 432 397 440 q 272 415 310 426 q 215 335 215 393 q 250 256 215 288 q 300 238 271 238 q 358 251 326 238 q 428 339 397 275 q 475 413 449 378 q 540 467 501 449 l 547 468 q 596 451 564 468 q 656 404 628 433 q 676 358 676 381 l 675 344 q 458 56 589 131 q 300 8 376 8 m 392 631 q 440 650 419 631 q 460 699 460 669 q 440 746 460 726 q 392 765 419 765 q 344 746 364 765 q 324 699 324 726 q 344 650 324 669 q 392 631 364 631 m 411 1068 l 408 1068 q 344 1115 386 1068 q 269 1213 269 1196 q 282 1236 269 1229 q 375 1286 363 1286 l 385 1283 q 439 1172 400 1279 q 456 1106 456 1124 q 451 1092 456 1097 q 433 1079 447 1086 l 432 1078 q 411 1068 421 1071 z "},"é":{"ha":683,"x_min":11,"x_max":676,"o":"m 300 8 q 169 40 253 8 q 33 221 86 71 q 11 364 11 285 q 51 607 11 471 q 243 867 132 794 q 417 924 332 924 q 497 915 436 924 q 611 832 557 906 q 644 732 644 788 q 622 628 644 697 q 442 464 600 560 q 344 432 397 440 q 272 415 310 426 q 215 335 215 393 q 250 256 215 288 q 300 238 271 238 q 358 251 326 238 q 428 339 397 275 q 475 413 449 378 q 540 467 501 449 l 547 468 q 596 451 564 468 q 656 404 628 433 q 676 358 676 381 l 675 344 q 458 56 589 131 q 300 8 376 8 m 392 631 q 440 650 419 631 q 460 699 460 669 q 440 746 460 726 q 392 765 419 765 q 344 746 364 765 q 324 699 324 726 q 344 650 324 669 q 392 631 364 631 m 367 1068 q 343 1078 358 1068 l 336 1082 q 318 1107 318 1089 l 321 1124 q 378 1271 325 1153 q 400 1286 385 1286 q 414 1282 407 1286 q 493 1236 431 1275 q 506 1213 506 1229 q 499 1197 506 1204 q 431 1115 457 1143 q 390 1077 404 1086 q 367 1068 376 1068 z "},"ê":{"ha":683,"x_min":11,"x_max":676,"o":"m 300 8 q 169 40 253 8 q 33 221 86 71 q 11 364 11 285 q 51 607 11 471 q 243 867 132 794 q 417 924 332 924 q 497 915 436 924 q 611 832 557 906 q 644 732 644 788 q 622 628 644 697 q 442 464 600 560 q 344 432 397 440 q 272 415 310 426 q 215 335 215 393 q 250 256 215 288 q 300 238 271 238 q 358 251 326 238 q 428 339 397 275 q 475 413 449 378 q 540 467 501 449 l 547 468 q 596 451 564 468 q 656 404 628 433 q 676 358 676 381 l 675 344 q 458 56 589 131 q 300 8 376 8 m 392 631 q 440 650 419 631 q 460 699 460 669 q 440 746 460 726 q 392 765 419 765 q 344 746 364 765 q 324 699 324 726 q 344 650 324 669 q 392 631 364 631 m 507 1061 l 506 1061 q 392 1204 499 1061 q 279 1061 285 1061 q 258 1082 272 1061 q 246 1097 251 1092 q 235 1117 235 1114 l 235 1118 q 238 1124 235 1121 q 240 1128 240 1126 q 382 1288 369 1276 l 393 1293 q 426 1263 399 1293 l 543 1128 l 550 1118 q 538 1097 550 1115 q 521 1076 531 1090 q 507 1061 511 1061 z "},"ë":{"ha":683,"x_min":11,"x_max":676,"o":"m 300 8 q 169 40 253 8 q 33 221 86 71 q 11 364 11 285 q 51 607 11 471 q 243 867 132 794 q 417 924 332 924 q 497 915 436 924 q 611 832 557 906 q 644 732 644 788 q 622 628 644 697 q 442 464 600 560 q 344 432 397 440 q 272 415 310 426 q 215 335 215 393 q 250 256 215 288 q 300 238 271 238 q 358 251 326 238 q 428 339 397 275 q 475 413 449 378 q 540 467 501 449 l 547 468 q 596 451 564 468 q 656 404 628 433 q 676 358 676 381 l 675 344 q 458 56 589 131 q 300 8 376 8 m 392 631 q 440 650 419 631 q 460 699 460 669 q 440 746 460 726 q 392 765 419 765 q 344 746 364 765 q 324 699 324 726 q 344 650 324 669 q 392 631 364 631 m 247 1115 q 169 1186 174 1115 q 235 1240 179 1240 q 283 1226 256 1240 q 314 1172 310 1211 q 247 1115 308 1115 m 511 1115 q 433 1186 438 1115 q 499 1240 443 1240 q 547 1226 519 1240 q 578 1172 574 1211 q 511 1115 572 1115 z "},"ì":{"ha":286,"x_min":24,"x_max":275,"o":"m 78 -6 q 49 1 60 -6 q 36 47 39 8 q 33 176 33 86 l 32 313 l 24 594 q 27 629 24 622 q 46 636 31 636 q 97 633 61 636 q 199 625 132 629 q 269 610 260 625 q 275 586 275 603 q 247 399 275 561 q 206 39 219 188 q 200 9 204 18 q 180 -2 196 0 q 111 -4 164 -4 l 78 -6 m 197 1040 l 194 1040 q 171 1049 185 1040 q 131 1088 157 1058 q 57 1186 57 1169 q 68 1210 57 1201 l 129 1244 q 158 1258 150 1258 l 171 1257 q 225 1144 185 1251 q 242 1076 242 1096 q 239 1065 242 1069 q 219 1051 236 1060 l 218 1050 q 197 1040 207 1043 z "},"í":{"ha":288,"x_min":24,"x_max":296,"o":"m 78 -6 q 49 1 60 -6 q 36 47 39 8 q 33 176 33 86 l 32 313 l 24 594 q 27 629 24 622 q 46 636 31 636 q 97 633 61 636 q 199 625 132 629 q 269 610 260 625 q 275 586 275 603 q 247 399 275 561 q 206 39 219 188 q 200 9 204 18 q 180 -2 196 0 q 111 -4 164 -4 l 78 -6 m 158 1040 q 133 1050 149 1040 q 131 1052 133 1051 q 126 1054 129 1053 q 110 1079 110 1063 l 113 1096 q 169 1243 117 1124 q 193 1258 175 1258 q 206 1256 199 1258 l 283 1210 q 296 1188 296 1200 q 290 1169 296 1179 q 222 1088 247 1117 q 181 1049 196 1058 q 158 1040 167 1040 z "},"î":{"ha":286,"x_min":-8,"x_max":306,"o":"m 76 -6 q 49 1 60 -6 q 35 47 39 8 q 32 176 32 86 l 31 313 l 22 594 l 24 604 l 24 613 q 26 630 24 624 q 44 636 29 636 q 96 633 60 636 q 197 625 132 629 q 269 610 258 625 q 274 586 274 603 q 267 528 274 565 l 258 475 q 247 399 253 432 q 204 39 224 244 q 199 9 203 18 q 179 -2 194 0 q 110 -4 164 -4 l 76 -6 m 263 1033 l 261 1033 q 149 1176 256 1033 l 46 1043 q 35 1033 39 1033 q 21 1046 29 1033 l 14 1056 q -8 1089 -8 1083 l -8 1092 q -3 1100 -8 1094 q 139 1260 126 1249 l 149 1267 q 183 1235 154 1267 q 301 1097 290 1108 l 306 1089 q 303 1082 306 1086 q 282 1056 300 1078 l 275 1046 q 263 1033 268 1033 z "},"ï":{"ha":286,"x_min":-56,"x_max":353,"o":"m 76 -6 q 49 1 60 -6 q 36 47 39 8 q 31 313 35 65 q 28 440 31 358 q 24 594 25 521 q 27 629 24 622 q 46 636 31 636 q 97 633 61 636 q 197 625 132 629 q 269 610 260 625 q 274 586 274 603 q 267 528 274 565 l 258 475 q 247 399 253 432 q 204 39 231 285 q 199 9 203 18 q 179 -2 194 0 q 129 -4 164 -4 l 92 -4 l 76 -6 m 22 1088 q -56 1158 -51 1088 q 11 1213 -46 1213 q 59 1199 32 1213 q 89 1144 86 1185 q 22 1088 83 1088 m 286 1088 q 208 1158 213 1088 q 274 1213 218 1213 q 323 1199 296 1213 q 353 1144 350 1185 q 286 1088 347 1088 z "},"ñ":{"ha":768,"x_min":32,"x_max":735,"o":"m 635 6 l 575 6 q 490 94 490 11 l 490 103 q 517 290 490 183 q 543 481 543 396 l 543 503 q 488 576 531 576 q 440 564 476 576 q 341 441 403 551 q 265 150 279 331 q 228 38 260 63 q 160 13 197 13 l 156 13 q 124 10 139 13 q 96 7 108 7 q 65 14 82 7 q 32 179 32 28 l 36 351 q 81 943 49 924 q 136 957 99 953 l 140 957 q 236 971 217 971 q 269 965 251 971 q 288 903 286 960 l 289 871 q 282 715 289 814 l 281 699 q 503 925 401 882 q 585 943 547 943 q 681 902 632 943 q 733 758 731 861 l 735 621 q 718 121 735 440 l 713 38 q 635 6 710 8 m 438 1044 q 395 1063 414 1044 q 362 1101 376 1081 q 333 1135 347 1122 q 306 1149 319 1149 q 290 1130 294 1147 q 278 1071 286 1113 q 274 1060 276 1063 q 246 1047 261 1047 l 231 1050 q 207 1101 207 1053 q 283 1226 207 1194 q 300 1229 292 1229 q 393 1158 339 1229 q 419 1128 408 1139 q 436 1118 429 1118 q 463 1139 449 1118 l 482 1168 l 493 1188 q 521 1203 503 1203 q 535 1201 525 1203 q 553 1188 546 1199 q 560 1167 560 1176 q 543 1126 560 1153 l 536 1117 q 438 1044 494 1044 z "},"ò":{"ha":714,"x_min":8,"x_max":703,"o":"m 256 21 q 140 49 215 21 q 15 271 64 76 q 8 354 8 311 q 58 604 8 460 q 228 863 107 749 q 453 956 326 956 q 513 950 482 956 q 651 838 603 922 q 703 657 700 754 l 703 632 q 620 297 703 447 q 413 69 538 146 q 256 21 331 21 m 356 401 q 403 421 383 401 q 424 469 424 440 q 403 517 424 497 q 356 536 383 536 q 308 517 328 536 q 289 469 289 497 q 308 421 289 440 q 356 401 328 401 m 404 1050 l 399 1050 q 338 1096 378 1050 q 263 1194 263 1179 q 275 1218 263 1210 q 336 1254 304 1236 q 352 1263 344 1258 q 365 1267 360 1267 l 378 1265 q 432 1153 392 1260 q 449 1088 449 1106 q 432 1064 449 1072 l 426 1060 l 425 1060 q 404 1050 414 1051 z "},"ó":{"ha":714,"x_min":8,"x_max":703,"o":"m 256 21 q 140 49 215 21 q 15 271 64 76 q 8 354 8 311 q 58 604 8 460 q 228 863 107 749 q 453 956 326 956 q 513 950 482 956 q 651 838 603 922 q 703 657 700 754 l 703 632 q 620 297 703 447 q 413 69 538 146 q 256 21 331 21 m 356 401 q 403 421 383 401 q 424 469 424 440 q 403 517 424 497 q 356 536 383 536 q 308 517 328 536 q 289 469 289 497 q 308 421 289 440 q 356 401 328 401 m 381 1050 q 354 1060 368 1050 l 353 1060 l 347 1064 q 331 1088 331 1071 l 333 1104 q 389 1251 338 1136 q 414 1267 397 1267 q 427 1263 419 1267 q 443 1254 435 1258 q 504 1218 475 1236 q 517 1194 517 1210 q 443 1096 517 1179 q 381 1050 401 1050 z "},"ô":{"ha":714,"x_min":8,"x_max":703,"o":"m 256 21 q 140 49 215 21 q 15 271 64 76 q 8 354 8 311 q 58 604 8 460 q 228 863 107 749 q 453 956 326 956 q 513 950 482 956 q 651 838 603 922 q 703 657 700 754 l 703 632 q 620 297 703 447 q 413 69 538 146 q 256 21 331 21 m 356 401 q 403 421 383 401 q 424 469 424 440 q 403 517 424 497 q 356 536 383 536 q 308 517 328 536 q 289 469 289 497 q 308 421 289 440 q 356 401 328 401 m 557 1042 l 556 1042 q 544 1051 551 1042 l 442 1185 q 328 1042 335 1042 q 315 1054 324 1042 q 306 1065 311 1058 q 296 1078 301 1072 q 285 1097 285 1094 q 288 1104 285 1101 q 290 1108 290 1107 l 364 1193 q 432 1268 414 1251 l 442 1275 q 521 1193 450 1275 l 593 1108 l 600 1099 q 597 1092 600 1096 q 589 1080 594 1088 q 578 1065 583 1072 q 569 1054 572 1058 q 557 1042 561 1043 z "},"õ":{"ha":714,"x_min":8,"x_max":703,"o":"m 256 21 q 140 49 215 21 q 15 271 64 76 q 8 354 8 311 q 58 604 8 460 q 228 863 107 749 q 453 956 326 956 q 513 950 482 956 q 651 838 603 922 q 703 657 700 754 l 703 632 q 620 297 703 447 q 413 69 538 146 q 256 21 331 21 m 356 401 q 403 421 383 401 q 424 469 424 440 q 403 517 424 497 q 356 536 383 536 q 308 517 328 536 q 289 469 289 497 q 308 421 289 440 q 356 401 328 401 m 476 1044 q 435 1063 454 1044 q 401 1101 417 1081 q 373 1135 386 1122 q 346 1149 360 1149 q 321 1089 329 1146 q 314 1060 318 1064 q 286 1047 301 1047 q 269 1049 282 1047 q 252 1069 257 1051 q 247 1103 247 1086 q 324 1226 247 1194 q 340 1229 332 1229 q 433 1158 379 1229 q 476 1118 463 1118 q 521 1168 493 1118 l 533 1188 q 561 1203 543 1203 q 575 1201 565 1203 q 592 1187 585 1199 q 599 1167 599 1175 q 576 1117 599 1151 q 476 1044 535 1044 z "},"ö":{"ha":714,"x_min":8,"x_max":703,"o":"m 256 21 q 140 49 215 21 q 15 271 64 76 q 8 354 8 311 q 58 604 8 460 q 228 863 107 749 q 453 956 326 956 q 513 950 482 956 q 651 838 603 922 q 703 657 700 754 l 703 632 q 620 297 703 447 q 413 69 538 146 q 256 21 331 21 m 356 401 q 403 421 383 401 q 424 469 424 440 q 403 517 424 497 q 356 536 383 536 q 308 517 328 536 q 289 469 289 497 q 308 421 289 440 q 356 401 328 401 m 297 1096 q 249 1110 276 1096 q 219 1167 222 1124 q 285 1221 229 1221 q 333 1207 306 1221 q 364 1153 360 1193 q 297 1096 358 1096 m 561 1096 q 513 1110 540 1096 q 483 1167 486 1124 q 549 1221 493 1221 q 597 1207 569 1221 q 628 1153 624 1193 q 561 1096 622 1096 z "},"ø":{"ha":803,"x_min":6,"x_max":813,"o":"m 272 19 q 119 86 188 19 l 76 40 q 64 35 71 35 q 57 36 63 35 q 29 54 51 38 q 28 56 29 56 q 24 60 26 57 q 6 82 6 69 q 67 167 6 92 q 25 354 25 256 q 74 604 25 460 q 244 863 124 749 q 469 956 343 956 q 529 950 499 956 q 625 894 585 935 l 651 929 q 661 933 654 933 q 721 908 678 933 q 800 871 788 875 q 813 861 813 867 q 805 846 813 857 q 774 808 797 835 q 708 736 751 782 q 719 635 719 689 q 617 261 719 424 q 371 40 514 99 q 272 19 319 19 m 369 401 q 417 421 397 401 q 436 469 436 440 q 417 517 436 497 q 369 536 397 536 q 321 517 340 536 q 301 469 301 497 q 321 421 301 440 q 369 401 340 401 z "},"ù":{"ha":660,"x_min":26,"x_max":633,"o":"m 474 -65 q 417 -44 429 -65 q 410 -6 410 -33 q 419 82 410 26 q 236 1 313 1 q 121 58 188 1 q 33 350 54 115 q 26 508 26 425 q 58 910 26 688 q 79 953 60 943 q 151 963 99 963 l 197 963 l 228 964 q 286 947 272 964 q 292 921 292 939 q 272 818 292 888 q 226 478 226 635 q 260 279 226 349 q 297 246 278 246 q 363 323 322 246 q 446 775 404 400 q 499 818 453 804 q 560 828 529 828 q 603 822 574 828 q 633 779 633 817 q 614 288 614 511 l 615 186 l 615 74 q 611 -17 615 15 q 585 -56 607 -49 q 522 -64 564 -64 l 496 -64 l 474 -65 m 378 1042 l 375 1042 q 352 1051 367 1042 q 311 1088 338 1060 q 243 1171 285 1117 q 238 1188 238 1179 q 238 1199 238 1190 q 311 1246 239 1207 q 342 1260 332 1260 l 351 1257 q 406 1146 364 1254 q 424 1081 424 1099 q 406 1056 424 1063 q 402 1053 404 1054 q 400 1051 400 1053 q 378 1042 388 1044 z "},"ú":{"ha":660,"x_min":26,"x_max":633,"o":"m 474 -65 q 417 -44 429 -65 q 410 -6 410 -33 q 419 82 410 26 q 236 1 313 1 q 121 58 188 1 q 33 350 54 115 q 26 508 26 425 q 58 910 26 688 q 79 953 60 943 q 151 963 99 963 l 197 963 l 228 964 q 286 947 272 964 q 292 921 292 939 q 272 818 292 888 q 226 478 226 635 q 260 279 226 349 q 297 246 278 246 q 363 323 322 246 q 446 775 404 400 q 499 818 453 804 q 560 828 529 828 q 603 822 574 828 q 633 779 633 817 q 614 288 614 511 l 615 186 l 615 74 q 611 -17 615 15 q 585 -56 607 -49 q 522 -64 564 -64 l 496 -64 l 474 -65 m 344 1042 q 321 1051 336 1042 l 314 1056 q 297 1079 297 1064 l 300 1096 q 356 1244 306 1131 q 378 1260 363 1260 q 392 1256 385 1260 q 471 1210 408 1249 q 483 1188 483 1203 q 410 1089 483 1171 q 344 1042 367 1042 z "},"û":{"ha":660,"x_min":26,"x_max":633,"o":"m 474 -65 q 417 -44 429 -65 q 410 -6 410 -33 q 419 82 410 26 q 236 1 313 1 q 121 58 188 1 q 33 350 54 115 q 26 508 26 425 q 58 910 26 688 q 79 953 60 943 q 151 963 99 963 l 197 963 l 228 964 q 286 947 272 964 q 292 921 292 939 q 272 818 292 888 q 226 478 226 635 q 260 279 226 349 q 297 246 278 246 q 363 323 322 246 q 446 775 404 400 q 499 818 453 804 q 560 828 529 828 q 603 822 574 828 q 633 779 633 817 q 614 288 614 511 l 615 186 l 615 74 q 611 -17 615 15 q 585 -56 607 -49 q 522 -64 564 -64 l 496 -64 l 474 -65 m 478 1035 l 476 1035 q 465 1044 472 1035 l 363 1178 q 250 1035 256 1035 q 229 1056 243 1035 q 217 1071 222 1065 q 206 1090 206 1086 l 206 1093 q 210 1099 206 1094 q 285 1186 222 1111 q 353 1261 343 1253 l 364 1267 q 397 1236 369 1267 l 514 1101 l 521 1092 q 518 1085 521 1089 q 510 1073 515 1081 q 497 1056 504 1065 l 490 1047 q 478 1035 482 1035 z "},"ü":{"ha":660,"x_min":26,"x_max":633,"o":"m 474 -65 q 417 -44 429 -65 q 410 -6 410 -33 q 419 82 410 26 q 236 1 313 1 q 121 58 188 1 q 33 350 54 115 q 26 508 26 425 q 58 910 26 688 q 79 953 60 943 q 151 963 99 963 l 197 963 l 228 964 q 286 947 272 964 q 292 921 292 939 q 272 818 292 888 q 226 478 226 635 q 260 279 226 349 q 297 246 278 246 q 363 323 322 246 q 446 775 404 400 q 499 818 453 804 q 560 828 529 828 q 603 822 574 828 q 633 779 633 817 q 614 288 614 511 l 615 186 l 615 74 q 611 -17 615 15 q 585 -56 607 -49 q 522 -64 564 -64 l 496 -64 l 474 -65 m 206 1089 q 128 1160 132 1089 q 193 1214 138 1214 q 241 1199 214 1214 q 272 1146 268 1185 q 206 1089 267 1089 m 469 1089 q 390 1160 397 1089 q 457 1214 400 1214 q 505 1199 478 1214 q 536 1146 532 1185 q 469 1089 531 1089 z "},"ý":{"ha":692,"x_min":18,"x_max":667,"o":"m 307 3 q 241 8 299 3 q 115 94 183 13 q 43 308 46 175 l 43 328 q 54 378 43 360 q 125 396 65 396 l 146 396 q 201 387 186 396 q 217 349 217 378 l 217 344 q 247 263 217 289 q 339 231 283 231 q 382 239 364 231 q 476 356 454 274 q 489 460 489 403 q 482 553 489 503 q 242 432 339 432 q 155 453 219 432 q 49 611 90 475 q 18 818 18 710 q 22 903 18 860 q 43 954 25 939 q 151 969 61 969 q 186 966 171 969 q 205 951 201 963 q 208 919 208 939 l 208 907 q 254 722 208 789 q 318 682 282 682 q 381 703 338 682 q 493 903 424 724 q 494 911 494 906 q 500 937 496 922 q 519 961 504 951 q 560 971 533 971 q 640 965 625 971 q 660 938 656 960 q 664 854 664 907 l 667 686 q 653 390 667 517 q 603 194 640 263 q 506 83 565 126 q 307 3 404 3 m 301 1042 q 278 1051 293 1042 l 271 1056 q 253 1081 253 1063 l 256 1097 q 313 1244 260 1126 q 335 1260 319 1260 q 349 1256 342 1260 q 428 1210 365 1249 q 440 1186 440 1203 q 433 1171 440 1178 q 365 1088 392 1117 q 325 1051 339 1060 q 301 1042 311 1042 z "},"ÿ":{"ha":692,"x_min":18,"x_max":667,"o":"m 307 3 q 241 8 299 3 q 115 94 183 13 q 43 308 46 175 l 43 328 q 54 378 43 360 q 125 396 65 396 l 146 396 q 201 387 186 396 q 217 349 217 378 l 217 344 q 247 263 217 289 q 339 231 283 231 q 382 239 364 231 q 476 356 454 274 q 489 460 489 403 q 482 553 489 503 q 242 432 339 432 q 155 453 219 432 q 49 611 90 475 q 18 818 18 710 q 22 903 18 860 q 43 954 25 939 q 151 969 61 969 q 186 966 171 969 q 205 951 201 963 q 208 919 208 939 l 208 907 q 254 722 208 789 q 318 682 282 682 q 381 703 338 682 q 493 903 424 724 q 494 911 494 906 q 500 937 496 922 q 519 961 504 951 q 560 971 533 971 q 640 965 625 971 q 660 938 656 960 q 664 854 664 907 l 667 686 q 653 390 667 517 q 603 194 640 263 q 506 83 565 126 q 307 3 404 3 m 217 1089 q 138 1160 142 1089 q 204 1214 147 1214 q 252 1199 225 1214 q 283 1146 279 1185 q 217 1089 278 1089 m 481 1089 q 401 1160 406 1089 q 468 1214 411 1214 q 516 1199 489 1214 q 547 1146 543 1185 q 481 1089 542 1089 z "},"ı":{"ha":286,"x_min":24,"x_max":275,"o":"m 78 -6 q 49 1 60 -6 q 36 47 39 8 q 33 176 33 86 l 32 313 l 24 594 q 27 629 24 622 q 46 636 31 636 q 97 633 61 636 q 199 625 132 629 q 269 610 260 625 q 275 586 275 603 q 247 399 275 561 q 206 39 219 188 q 200 9 204 18 q 180 -2 196 0 q 111 -4 164 -4 l 78 -6 z "},"Œ":{"ha":1007,"x_min":8,"x_max":988,"o":"m 550 0 l 531 0 q 479 10 492 0 q 467 43 467 21 l 471 147 q 408 85 442 114 q 214 1 300 1 q 113 28 182 1 q 15 208 44 54 q 8 292 8 247 q 71 585 8 419 q 353 935 165 826 q 471 965 417 965 q 546 949 511 965 q 799 971 635 971 q 909 968 846 971 q 982 953 972 965 q 988 888 988 931 q 940 785 988 789 l 851 785 q 774 782 804 785 q 733 766 743 779 q 724 721 724 753 l 721 681 q 718 617 718 640 q 719 592 718 608 q 756 575 721 575 q 793 578 771 575 q 903 586 832 583 q 946 538 929 583 q 963 444 963 493 q 938 378 961 394 q 861 360 904 361 l 817 358 l 726 361 q 704 338 713 360 q 689 250 689 300 q 700 211 689 213 q 951 224 821 215 q 977 193 968 224 q 986 122 986 163 q 976 50 986 82 q 947 14 967 18 q 721 4 833 4 q 550 0 636 4 m 340 415 q 394 435 372 415 q 417 483 417 456 q 394 531 417 511 q 340 550 372 550 q 288 531 310 550 q 265 483 265 511 q 288 435 265 456 q 340 415 310 415 z "},"œ":{"ha":1185,"x_min":8,"x_max":1178,"o":"m 256 21 q 127 60 199 21 q 15 271 56 100 q 8 354 8 311 q 58 604 8 460 q 228 863 107 749 q 453 956 326 956 q 513 950 482 956 q 667 811 618 917 q 917 938 786 938 q 1092 872 1024 938 q 1146 744 1146 818 q 1131 651 1146 719 q 943 478 1115 583 q 846 447 899 456 q 775 429 813 440 q 717 350 717 407 q 751 271 717 303 q 803 251 772 251 q 860 265 828 251 q 931 354 899 289 q 976 427 950 392 q 1042 481 1003 463 l 1050 482 q 1099 465 1067 482 q 1157 418 1131 449 q 1178 374 1178 396 l 1176 360 q 972 78 1096 156 q 800 22 885 22 q 690 44 765 22 q 551 193 614 65 q 350 39 460 81 q 256 21 301 21 m 893 644 q 941 665 921 644 q 961 713 961 685 q 941 760 961 740 q 893 781 921 781 q 846 760 865 781 q 826 713 826 740 q 846 665 826 685 q 893 644 865 644 m 356 401 q 403 421 383 401 q 424 469 424 440 q 403 517 424 497 q 356 536 383 536 q 308 517 328 536 q 289 469 289 497 q 308 421 289 440 q 356 401 328 401 z "},"Š":{"ha":626,"x_min":17,"x_max":613,"o":"m 279 -7 q 189 4 236 -7 q 38 147 79 39 q 17 257 17 203 q 36 363 17 310 q 63 392 46 386 q 89 394 72 394 l 114 393 q 210 374 186 393 q 243 336 233 354 q 275 310 260 310 q 296 315 283 310 q 340 375 340 336 q 340 397 340 376 q 274 453 339 418 l 244 467 q 112 542 165 501 q 38 664 58 583 q 31 725 31 696 q 78 860 31 796 q 224 954 126 924 q 347 974 285 974 q 421 967 383 974 q 557 908 514 950 q 611 782 600 867 q 613 753 613 769 q 582 594 613 646 q 558 581 572 581 q 472 674 524 581 q 382 767 419 767 q 351 756 367 767 q 335 729 335 746 q 356 677 335 713 q 460 549 378 642 l 513 486 q 578 307 578 403 q 564 203 578 281 q 447 49 550 126 q 279 -7 376 -7 m 315 1038 l 314 1038 q 164 1204 304 1038 q 157 1213 157 1211 q 157 1215 157 1214 q 181 1249 157 1219 l 188 1258 q 200 1271 196 1269 q 213 1260 204 1271 q 314 1128 264 1194 l 417 1260 q 429 1271 425 1271 q 442 1258 433 1269 l 449 1249 q 472 1215 472 1219 q 465 1204 472 1211 q 315 1038 325 1038 z "},"š":{"ha":626,"x_min":14,"x_max":610,"o":"m 279 -3 q 206 4 243 -3 q 69 63 111 21 q 15 189 26 106 q 14 224 14 204 q 44 376 14 326 q 68 392 54 392 q 108 368 85 392 q 154 300 132 339 q 244 206 206 206 q 276 216 260 206 q 293 243 293 226 q 269 296 293 260 q 114 485 243 338 q 49 665 49 569 q 63 768 49 692 q 179 924 76 844 q 349 978 251 978 q 438 968 390 978 q 589 825 547 933 q 610 715 610 769 q 590 610 610 663 q 564 581 581 585 q 533 576 553 576 q 512 578 524 576 q 486 579 500 579 q 415 599 438 582 q 382 635 393 617 q 350 661 368 661 q 331 657 342 661 q 286 597 286 635 q 287 574 286 596 q 353 518 288 553 l 382 506 q 514 430 461 471 q 588 307 567 389 q 594 244 594 274 q 547 111 594 174 q 403 17 500 49 q 279 -3 342 -3 m 357 1042 q 324 1072 350 1042 q 206 1208 265 1136 q 201 1212 204 1210 q 199 1218 199 1214 q 222 1253 199 1224 q 242 1275 238 1274 q 254 1264 246 1275 l 357 1132 q 458 1264 407 1199 q 471 1275 467 1275 q 483 1261 475 1274 q 501 1238 493 1251 q 514 1218 514 1225 l 514 1217 q 507 1208 514 1215 q 392 1073 419 1104 q 357 1042 364 1042 z "},"Ÿ":{"ha":696,"x_min":-14,"x_max":708,"o":"m 225 -1 q 209 3 214 -1 q 204 24 204 8 q 210 165 204 71 q 222 426 214 296 q 213 458 222 444 l 22 768 q -4 811 10 790 q -14 835 -14 826 q -13 841 -14 836 q 6 860 -12 846 q 124 940 114 940 q 142 928 133 940 l 318 663 l 331 646 q 343 660 340 650 q 497 896 350 667 l 531 944 l 533 950 q 558 968 546 968 q 582 953 569 968 l 689 825 q 708 793 708 801 q 568 574 708 782 l 536 524 l 465 418 q 460 403 460 411 l 444 210 q 435 61 435 74 l 435 42 q 430 19 435 21 q 417 15 425 18 l 415 15 q 351 6 385 7 l 238 0 l 225 -1 m 221 1092 q 173 1106 200 1092 q 143 1163 146 1119 q 208 1217 153 1217 q 257 1203 231 1217 q 288 1149 283 1189 q 221 1092 282 1092 m 485 1092 q 437 1106 464 1092 q 407 1163 410 1119 q 472 1217 417 1217 q 521 1203 494 1217 q 551 1149 547 1189 q 485 1092 546 1092 z "},"ž":{"ha":750,"x_min":6,"x_max":742,"o":"m 65 -35 q 36 -24 47 -35 q 24 25 25 -12 l 21 40 l 18 67 q 6 189 6 161 q 13 240 6 218 q 44 286 21 261 l 426 747 l 306 742 q 181 736 231 736 q 105 741 144 736 q 58 789 65 746 q 56 821 56 803 q 67 933 56 864 l 68 942 q 83 1003 72 992 q 106 1010 90 1010 q 133 1006 117 1010 l 204 993 q 717 889 457 946 q 742 858 742 882 q 740 841 742 856 q 717 791 739 826 q 664 725 694 756 q 376 435 411 472 q 354 404 354 411 q 358 401 354 401 l 363 403 q 532 439 467 422 q 646 460 607 460 q 688 447 668 460 q 714 324 707 435 q 722 261 721 265 q 725 231 725 240 q 720 215 725 219 q 703 207 715 211 l 700 206 q 315 46 453 101 q 65 -35 119 -35 m 432 1033 q 354 1117 424 1033 q 279 1203 279 1199 q 275 1210 275 1207 l 275 1211 q 297 1244 275 1217 l 304 1254 q 318 1267 313 1267 q 329 1257 322 1267 l 432 1124 q 546 1267 539 1267 q 558 1254 551 1267 q 567 1243 563 1250 q 578 1231 572 1236 q 589 1211 589 1215 l 589 1208 q 582 1200 589 1207 l 467 1065 q 432 1033 438 1033 z "},"†":{"ha":668,"x_min":42,"x_max":626,"o":"m 339 -22 l 324 -22 q 308 -20 317 -22 q 299 -6 300 -18 q 272 490 286 246 l 265 615 q 72 608 101 608 q 47 615 51 608 q 42 636 42 621 l 43 658 q 46 731 46 683 q 49 771 47 758 q 55 785 50 783 q 67 788 60 788 l 256 786 q 249 915 251 850 l 244 1008 q 311 1036 244 1024 q 395 1057 389 1054 q 404 1060 401 1060 q 411 1060 406 1060 q 417 1017 417 1060 l 415 951 l 410 785 q 581 778 542 782 q 625 765 619 775 q 626 754 626 761 l 625 738 q 619 655 624 676 q 600 633 615 633 q 404 622 501 626 l 400 485 q 385 -3 393 222 q 374 -17 383 -12 q 339 -22 364 -22 z "},"€":{"ha":640,"x_min":15,"x_max":621,"o":"m 340 72 q 168 154 236 75 q 78 353 100 233 l 42 356 q 17 364 18 358 l 15 371 q 19 431 15 408 q 31 443 21 443 l 67 446 l 67 499 l 35 499 q 18 502 21 499 q 15 515 15 506 l 17 529 l 18 572 q 23 605 18 603 q 40 607 28 607 l 82 607 q 199 829 111 733 q 339 904 258 890 q 372 907 356 907 q 581 775 483 907 q 621 657 621 717 q 598 631 621 638 q 543 623 575 625 q 507 621 511 621 q 483 635 489 621 q 410 693 458 693 q 381 692 408 693 q 313 603 353 692 q 358 593 356 599 l 358 586 q 344 514 358 514 l 288 510 q 285 469 285 489 l 285 457 l 339 458 q 356 454 353 458 q 358 438 358 450 l 358 428 q 356 385 356 414 q 354 358 356 367 q 344 350 353 350 l 310 350 q 381 292 336 301 q 397 289 389 289 q 476 328 433 289 q 494 348 489 339 q 510 357 499 357 q 607 325 607 357 l 606 319 q 521 158 594 238 q 340 72 447 79 z "}}}
